<?xml version="1.0" standalone="no"?>
<!DOCTYPE svg PUBLIC "-//W3C//DTD SVG 20010904//EN"
 "http://www.w3.org/TR/2001/REC-SVG-20010904/DTD/svg10.dtd">
<svg version="1.0" xmlns="http://www.w3.org/2000/svg"
 width="800.000000pt" height="600.000000pt" viewBox="0 0 800.000000 600.000000"
 preserveAspectRatio="xMidYMid meet">

<g transform="translate(0.000000,600.000000) scale(0.100000,-0.100000)"
fill="#000000" stroke="none">
<path d="M0 5741 c0 -224 -1 -221 51 -221 34 0 102 -50 197 -147 l93 -95 23
21 c12 12 26 21 30 21 4 0 19 9 33 20 14 11 30 20 35 20 5 0 27 -18 48 -39 31
-31 40 -47 40 -74 0 -40 -32 -78 -47 -55 -10 17 -114 70 -121 63 -3 -3 20 -31
52 -61 l58 -56 -29 -31 c-17 -18 -42 -49 -58 -69 -27 -37 -28 -38 -95 -38 -48
0 -71 -4 -80 -15 -11 -13 -6 -15 36 -17 27 -1 66 0 87 1 48 3 50 -19 5 -50
-71 -50 -154 -165 -164 -227 -6 -37 -5 -42 11 -36 13 6 11 -5 -13 -52 -16 -32
-39 -81 -51 -107 -12 -26 -26 -45 -31 -42 -6 4 -10 3 -11 -2 0 -4 -2 -19 -3
-33 -3 -30 -32 -191 -51 -280 -45 -206 -45 -208 -45 -905 l0 -668 143 8 c78 4
183 9 232 10 159 6 156 5 100 19 -27 7 -59 17 -70 23 -18 11 -19 12 -3 18 10
4 18 14 18 21 0 34 64 21 132 -27 23 -17 27 -24 16 -30 -7 -5 38 -8 108 -8 67
1 128 5 135 10 10 6 7 9 -12 9 -36 0 -101 28 -94 40 3 6 14 10 24 10 10 0 25
10 34 23 l15 22 54 -29 c29 -15 60 -37 69 -47 15 -16 23 -17 80 -8 35 6 71 8
81 6 28 -8 12 9 -23 23 -25 11 -28 15 -15 22 9 5 16 16 16 24 0 18 18 37 41
46 17 7 169 -84 169 -100 0 -6 9 -12 20 -15 14 -4 18 -11 14 -24 -4 -11 -3
-14 3 -6 4 6 24 13 43 15 l35 3 -54 33 c-29 18 -50 36 -46 40 4 4 10 1 12 -5
3 -7 14 -13 26 -13 20 0 19 2 -8 20 -58 38 -68 45 -89 65 -12 11 -15 15 -6 9
8 -6 22 -13 30 -17 8 -3 33 -12 55 -21 l40 -17 -25 21 c-95 79 -126 109 -170
161 -28 33 -50 64 -50 68 0 4 38 -29 84 -75 84 -83 128 -111 221 -138 61 -19
67 -15 18 10 -100 50 -221 164 -243 228 l-10 30 27 -26 c28 -27 155 -91 206
-103 35 -9 35 6 -1 27 -28 17 -76 64 -57 57 6 -2 41 -19 79 -38 77 -39 129
-44 255 -23 81 14 99 8 76 -25 -16 -23 -100 -83 -115 -83 -5 0 -11 -4 -15 -9
-9 -15 66 8 112 35 23 13 56 41 75 62 31 37 37 39 108 46 41 4 158 11 258 16
151 7 187 12 203 26 10 9 16 21 13 26 -4 6 2 8 14 4 11 -4 23 -2 27 3 3 6 20
14 38 20 18 5 41 12 52 16 16 6 17 5 5 -4 -12 -8 -8 -11 21 -11 19 0 39 -4 45
-9 5 -5 18 -11 29 -13 30 -7 -55 -42 -140 -58 -38 -7 -104 -25 -145 -40 -79
-29 -185 -87 -140 -76 14 3 52 9 85 12 33 4 70 13 82 20 12 8 46 14 75 14 46
0 56 4 73 26 35 47 68 57 168 49 61 -5 101 -14 121 -26 17 -10 38 -19 47 -19
8 0 25 -9 36 -19 12 -11 23 -18 26 -15 2 3 25 -9 49 -25 30 -20 61 -32 92 -35
28 -2 60 -12 76 -25 34 -25 63 -27 84 -6 8 8 26 15 41 15 l26 0 -23 32 c-30
43 -31 58 -4 58 24 0 54 28 76 73 12 25 12 30 0 37 -20 13 0 12 38 -1 28 -9
31 -15 30 -51 0 -48 17 -72 30 -39 7 21 10 20 50 -28 23 -27 42 -54 42 -58 0
-16 94 -82 118 -83 22 0 13 16 -28 46 -21 16 -42 36 -45 44 -4 8 6 3 22 -11
31 -29 72 -53 79 -46 3 2 -7 12 -21 21 -33 22 -33 38 1 25 15 -5 29 -7 31 -5
3 3 -9 25 -27 51 -31 44 -31 47 -14 66 9 10 24 19 33 19 9 0 25 14 35 30 14
25 15 34 5 46 -6 8 -10 17 -7 19 10 11 124 -15 133 -31 6 -8 27 -41 47 -72 21
-31 38 -67 38 -79 0 -50 -122 -153 -183 -153 -20 0 -23 -23 -4 -38 6 -5 32
-12 57 -15 25 -3 61 -9 80 -14 20 -5 52 -5 75 0 22 4 60 13 85 18 29 6 55 20
73 40 31 34 27 54 -9 45 -17 -5 -24 -2 -24 8 0 7 -17 29 -38 47 -41 36 -70 79
-53 79 5 0 23 -16 39 -36 26 -31 72 -64 90 -64 3 0 -12 16 -34 35 -21 19 -34
34 -27 35 6 0 15 -5 18 -10 3 -5 16 -10 27 -10 l21 0 -20 23 c-12 12 -31 39
-42 60 l-22 39 25 23 c32 30 57 80 50 99 -8 20 -5 20 40 1 25 -11 52 -13 90
-9 l53 6 32 -61 c40 -79 39 -102 -4 -148 -19 -20 -35 -41 -35 -45 0 -14 48 -9
84 9 35 16 73 74 61 93 -3 6 1 7 9 4 9 -3 16 -1 16 5 0 6 16 19 36 28 28 14
34 21 29 38 -14 43 -10 58 20 75 21 12 29 23 27 38 -4 27 2 27 38 2 25 -18 38
-19 99 -14 50 5 75 3 86 -6 16 -13 21 -75 6 -84 -5 -3 -11 -15 -14 -26 -4 -16
4 -24 39 -39 24 -11 66 -38 92 -60 54 -46 68 -51 51 -20 -9 17 -8 23 2 30 11
7 11 16 -3 54 -9 25 -13 45 -9 45 5 0 12 -7 15 -15 7 -18 72 -48 86 -40 5 3
-5 27 -21 53 -16 27 -32 65 -36 85 -5 35 -4 37 21 37 21 0 26 5 26 25 0 30 7
31 40 8 20 -14 42 -17 113 -15 101 4 112 -2 127 -59 6 -22 24 -54 39 -72 16
-17 38 -53 49 -79 11 -27 26 -48 31 -48 14 0 14 4 -4 45 -21 52 -75 251 -75
279 0 18 4 23 18 20 16 -5 28 -28 67 -137 18 -51 46 -86 82 -105 35 -19 36
-15 10 31 -30 52 -80 201 -75 224 3 14 13 8 47 -29 43 -46 46 -48 101 -48 64
0 97 22 86 58 -6 17 1 20 86 30 51 5 152 11 223 11 72 1 140 4 152 7 29 8 89
11 216 13 l108 1 -7 53 -6 52 26 -38 c27 -37 27 -37 84 -31 31 3 63 7 69 9 7
2 19 -5 27 -16 8 -12 22 -19 33 -17 18 4 20 17 9 62 -4 18 -1 25 14 29 18 5
20 14 20 79 -1 54 -3 69 -11 56 -21 -37 -36 -20 -42 49 -5 51 -3 71 7 81 12
12 16 11 25 -7 11 -19 18 -20 129 -17 146 6 303 16 321 22 9 3 11 14 7 37 -7
39 8 71 24 47 5 -8 11 -19 14 -25 2 -6 11 -6 24 2 17 10 21 9 26 -4 5 -13 16
-15 56 -10 62 7 70 12 70 41 0 35 22 55 65 58 37 3 40 1 43 -24 3 -25 32 -42
32 -19 0 5 18 9 40 9 60 1 82 10 75 32 -7 21 4 70 15 70 4 0 11 -16 14 -36 5
-26 11 -34 24 -30 9 2 26 7 37 10 37 10 48 -8 23 -40 -12 -16 -31 -35 -41 -43
-10 -7 -16 -19 -13 -27 7 -18 -4 -45 -15 -38 -5 3 -9 -10 -9 -29 0 -29 -4 -36
-25 -41 -26 -7 -32 -20 -14 -31 5 -4 18 0 28 9 10 9 22 16 28 16 6 0 16 6 22
14 7 8 34 22 62 32 27 10 49 22 49 26 0 4 6 8 14 8 8 0 36 15 62 33 27 19 61
37 77 41 l27 6 0 463 c-1 312 -4 456 -11 445 -5 -10 -25 -20 -44 -24 -19 -3
-35 -10 -35 -15 0 -23 -20 -5 -34 32 -16 39 -18 40 -31 23 -7 -10 -11 -22 -9
-25 6 -11 -53 -28 -121 -35 -59 -6 -65 -9 -74 -35 -13 -39 -29 -36 -37 6 -7
40 -22 54 -36 34 -7 -11 -11 -11 -15 -1 -7 17 -23 15 -23 -3 0 -18 -16 -20
-26 -3 -5 8 -11 6 -20 -6 -15 -21 -32 -13 -44 20 -11 29 -26 31 -35 4 -3 -11
-15 -20 -25 -20 -20 0 -30 -19 -30 -56 0 -35 -18 -20 -26 22 -5 29 -9 33 -21
22 -11 -9 -16 -9 -23 1 -6 10 -10 9 -18 -5 -11 -19 -11 -18 -25 0 -16 22 -55
29 -74 14 -7 -6 -13 -28 -13 -50 0 -51 -19 -46 -38 10 -15 47 -27 53 -35 20
-5 -18 -8 -19 -21 -9 -13 11 -17 10 -25 -10 l-9 -24 -7 28 c-8 29 -25 37 -25
12 0 -18 -16 -20 -26 -3 -5 7 -10 3 -16 -13 -8 -22 -10 -22 -19 -6 -13 22 -29
22 -29 0 0 -13 -3 -14 -12 -5 -16 16 -28 15 -28 -3 0 -20 -10 -19 -26 3 -9 12
-13 13 -14 3 0 -9 -8 -11 -25 -7 -16 4 -25 2 -25 -5 0 -8 -4 -8 -15 1 -8 6
-20 8 -26 4 -7 -4 -18 1 -26 11 -12 18 -13 18 -13 -3 0 -31 -18 -27 -32 6 -11
26 -12 25 -22 -31 l-11 -57 -27 34 c-18 22 -28 47 -28 68 0 48 -11 83 -21 67
-5 -9 -15 -1 -31 27 -22 38 -23 38 -26 13 -2 -20 -9 -27 -25 -28 -12 0 -41 -3
-65 -7 l-43 -6 1 -97 c1 -53 -3 -109 -9 -126 -9 -29 -9 -29 -10 -5 -2 38 -39
135 -51 133 -15 -4 -12 34 3 40 6 2 9 8 5 12 -4 4 -20 -2 -37 -14 -18 -13 -32
-17 -36 -11 -10 16 -25 12 -25 -6 0 -14 -3 -14 -16 -3 -13 10 -17 10 -24 -2
-8 -11 -12 -11 -24 6 -14 19 -15 19 -16 2 0 -13 -5 -17 -19 -12 -11 3 -22 1
-26 -5 -5 -8 -11 -7 -23 2 -12 10 -16 10 -19 1 -7 -20 -20 -15 -28 10 -6 20
-7 19 -17 -12 -7 -25 -12 -31 -18 -21 -10 16 -52 21 -62 7 -3 -5 -20 -12 -38
-14 -23 -2 -36 3 -50 19 -16 21 -19 21 -42 6 -18 -12 -37 -15 -67 -11 -33 5
-45 2 -55 -13 -11 -15 -17 -16 -29 -6 -10 9 -17 10 -22 2 -8 -14 -48 -13 -63
2 -9 9 -12 9 -12 0 0 -7 -7 -12 -15 -12 -8 0 -15 6 -15 14 0 10 -10 13 -39 10
-30 -3 -41 1 -47 14 -4 9 -9 96 -12 193 -3 137 0 195 12 255 17 81 52 148 83
159 27 9 65 63 69 96 3 24 -1 31 -23 40 -14 5 -45 7 -68 4 -60 -10 -67 4 -70
138 -3 107 -4 114 -36 169 -19 32 -40 57 -46 58 -7 0 -13 11 -13 25 0 29 -19
73 -42 99 -10 11 -20 28 -24 38 -3 10 -9 18 -13 18 -6 0 -30 55 -33 77 -3 14
-26 33 -42 33 -20 0 -7 -36 28 -83 13 -18 41 -65 62 -105 l37 -73 -29 -30
c-25 -26 -29 -37 -26 -77 1 -26 3 -109 3 -184 1 -76 3 -138 5 -138 1 0 11 26
21 58 l18 57 3 -50 c2 -27 -1 -115 -8 -195 -6 -80 -13 -208 -16 -285 -5 -165
-12 -222 -25 -230 -5 -4 -9 -76 -9 -164 0 -145 -10 -221 -29 -221 -26 0 -41
42 -46 121 -14 240 -23 305 -55 384 -7 16 -9 13 -9 -14 -1 -32 -11 -73 -32
-128 -5 -14 -14 -20 -23 -17 -8 3 -17 0 -21 -6 -6 -9 -10 -9 -16 1 -7 11 -11
10 -22 -5 -9 -12 -30 -20 -63 -23 -88 -8 -93 -10 -100 -49 -25 -134 -46 210
-25 406 12 108 37 203 52 194 5 -3 9 -12 9 -20 0 -33 20 -8 63 80 31 64 56
102 80 121 35 26 35 27 16 46 -10 10 -19 24 -19 30 0 16 -52 123 -64 131 -5 4
-13 5 -17 2 -4 -2 -10 4 -14 13 -3 10 -21 36 -39 57 -28 33 -38 38 -60 32 -40
-10 -54 -50 -60 -177 -2 -62 -10 -128 -16 -146 -6 -17 -10 -44 -8 -60 3 -22 8
-13 27 47 12 41 33 92 46 114 l23 39 21 -44 c12 -23 21 -47 21 -53 0 -6 -18
-26 -40 -46 l-41 -35 -17 -185 c-9 -102 -17 -237 -17 -300 0 -65 -6 -126 -12
-140 -7 -14 -12 -20 -13 -15 -4 28 -19 -37 -20 -85 -1 -74 -35 -269 -43 -250
-3 8 -4 4 -1 -10 4 -18 -1 -32 -15 -44 -20 -18 -20 -18 -27 9 -4 17 -2 36 5
47 8 14 9 34 2 76 -6 31 -15 113 -21 182 -7 68 -18 136 -25 150 l-14 25 -1
-30 c0 -53 -30 -115 -59 -122 -14 -3 -42 -15 -61 -26 -22 -12 -45 -17 -66 -14
-37 6 -58 -11 -70 -57 -6 -26 -8 -27 -18 -10 -14 23 -11 341 4 429 11 64 26
125 41 164 9 22 11 22 28 7 17 -15 19 -12 50 49 18 36 53 90 78 120 25 30 42
58 40 62 -3 4 -27 19 -54 33 -26 14 -50 28 -53 32 -3 4 -17 9 -30 10 -22 3
-25 -1 -25 -27 0 -24 4 -29 19 -27 12 2 16 -1 12 -10 -3 -7 -9 -20 -12 -28 -3
-9 -27 -28 -54 -43 -35 -19 -50 -35 -54 -55 -20 -95 -49 -328 -55 -446 -6
-110 -11 -140 -23 -147 -12 -6 -18 -32 -22 -91 -9 -110 -15 -135 -33 -154 -11
-10 -16 -37 -17 -84 -2 -73 -7 -87 -26 -75 -8 5 -10 24 -7 54 3 25 1 64 -4 86
-4 22 -13 96 -18 164 -6 68 -13 126 -15 129 -11 10 -34 -20 -40 -53 -8 -41
-38 -60 -111 -70 -78 -11 -84 -14 -96 -56 -7 -21 -14 -37 -17 -34 -15 15 -20
109 -11 235 11 169 24 255 51 327 27 73 41 78 37 14 -2 -28 -1 -51 2 -51 3 0
16 24 28 53 29 64 62 116 120 185 50 60 47 75 -18 86 -35 5 -43 2 -73 -28 -21
-21 -54 -39 -89 -49 -37 -11 -59 -24 -67 -39 -22 -43 -73 -332 -79 -453 -4
-74 -11 -124 -18 -130 -14 -12 -50 -323 -41 -358 3 -12 2 -36 -2 -52 -7 -26
-9 -27 -17 -10 -4 11 -9 47 -11 80 -5 118 -30 344 -38 352 -11 11 -36 -26 -36
-52 0 -16 -13 -29 -51 -49 -28 -14 -62 -26 -76 -26 -18 0 -28 -8 -36 -30 -6
-16 -14 -30 -18 -30 -33 0 0 418 40 515 5 11 13 32 20 48 16 40 35 35 27 -8
-9 -44 11 -48 27 -5 6 17 15 30 19 30 4 0 8 6 8 13 0 8 18 39 40 70 39 54 70
115 70 137 0 15 -36 12 -50 -5 -7 -8 -24 -15 -39 -15 -15 0 -31 -4 -36 -9 -6
-5 -37 -18 -70 -28 -74 -24 -83 -40 -121 -213 -35 -164 -42 -212 -43 -288 -1
-34 -8 -79 -16 -99 -9 -20 -20 -80 -25 -132 -17 -161 -33 -223 -44 -171 -12
58 -17 101 -25 203 -4 59 -13 113 -19 119 -9 9 -12 8 -12 -2 0 -34 -22 -90
-35 -90 -7 0 -17 -9 -20 -20 -3 -11 -14 -20 -22 -20 -37 0 -82 -24 -88 -47
-10 -40 -22 -25 -28 34 -12 114 42 423 85 488 l20 30 -6 -52 c-3 -29 -1 -53 3
-53 5 0 23 30 41 68 18 37 48 90 67 119 44 64 68 172 31 135 -7 -7 -24 -12
-39 -12 -24 0 -28 5 -31 33 -4 43 -23 32 -23 -15 0 -20 -3 -40 -7 -44 -4 -4
-36 -16 -70 -28 -76 -25 -82 -35 -128 -216 -45 -178 -49 -199 -50 -261 0 -31
-7 -78 -15 -105 -8 -27 -19 -95 -25 -152 -12 -114 -25 -161 -41 -145 -11 11
-29 152 -29 233 0 69 -15 97 -25 49 -4 -19 -13 -43 -21 -53 -18 -27 -65 -56
-90 -56 -15 0 -26 -10 -34 -31 -10 -22 -15 -27 -21 -17 -20 31 -3 227 32 368
21 82 62 190 74 190 7 0 -6 -81 -17 -102 -19 -38 10 -16 32 25 14 23 35 60 48
82 38 66 60 118 64 150 2 25 -1 31 -19 33 -14 2 -23 11 -24 23 -1 10 -3 24 -4
29 -1 6 -3 15 -4 20 0 6 -8 10 -17 10 -12 0 -15 -10 -13 -47 3 -45 2 -47 -31
-59 -19 -7 -48 -13 -65 -14 -51 -1 -66 -24 -101 -145 -8 -27 -22 -75 -31 -105
-9 -30 -18 -59 -22 -65 -12 -20 -30 -121 -30 -175 -1 -30 -5 -70 -10 -88 -5
-18 -15 -76 -21 -130 -13 -115 -28 -178 -40 -166 -14 15 -30 112 -31 187 -1
40 -5 86 -9 102 l-7 30 -11 -28 c-7 -16 -12 -39 -12 -52 0 -13 -12 -36 -27
-50 -27 -25 -33 -26 -133 -25 -58 1 -125 -1 -150 -4 -100 -13 -234 -25 -238
-21 -3 2 -13 0 -22 -5 -10 -5 -64 -12 -121 -14 -187 -9 -212 -17 -232 -68 -14
-35 -19 -39 -32 -28 -8 7 -15 23 -15 36 0 22 -4 24 -49 24 -31 0 -53 -5 -61
-15 -18 -21 -83 -19 -103 3 -11 12 -17 36 -17 67 0 55 -11 54 -17 -1 -2 -20
-10 -67 -18 -106 -8 -38 -15 -90 -16 -116 0 -26 -4 -56 -8 -67 -7 -17 -11 -13
-21 25 -9 31 -11 88 -7 186 5 131 8 150 47 263 22 67 49 137 60 156 11 19 29
52 41 73 23 41 88 112 102 112 5 0 4 -7 -3 -15 -21 -25 -5 -27 30 -3 65 45 63
86 -3 73 -23 -4 -30 -1 -34 16 -9 34 -39 19 -35 -17 3 -25 -3 -36 -25 -53 -15
-12 -55 -48 -88 -80 -82 -79 -111 -160 -135 -384 -6 -56 -15 -120 -20 -142 -5
-22 -12 -86 -16 -143 -4 -56 -10 -105 -14 -107 -5 -3 -11 22 -15 55 -5 39 -12
60 -20 60 -18 0 -25 23 -26 88 -1 31 -4 68 -8 82 -7 24 -8 23 -19 -15 -7 -22
-12 -54 -12 -71 0 -30 -14 -124 -27 -174 -5 -21 -8 -16 -24 35 -13 41 -19 94
-20 165 -2 155 -10 172 -36 75 -47 -176 -80 -203 -70 -59 9 128 32 206 107
359 37 77 74 158 80 180 13 42 77 165 117 224 l23 35 -30 13 c-17 6 -30 19
-30 28 0 9 -9 15 -25 15 -79 0 -179 -88 -236 -207 -47 -98 -47 -128 0 -60 56
82 53 40 -7 -76 -52 -101 -81 -164 -109 -237 -6 -14 -16 -56 -22 -95 -7 -38
-19 -104 -27 -145 -8 -41 -19 -104 -25 -140 -11 -76 -27 -130 -39 -130 -17 0
-22 40 -28 203 -2 92 -6 166 -8 164 -2 -2 -12 -46 -23 -98 -23 -108 -36 -149
-51 -149 -29 0 11 247 54 330 23 45 59 130 112 265 31 80 73 159 121 226 38
54 40 59 14 59 -10 0 -21 7 -25 15 -3 8 -17 20 -31 25 -14 5 -25 13 -25 18 0
13 91 42 135 42 58 1 235 36 248 49 8 8 6 15 -11 27 -28 19 -28 31 1 59 12 12
40 41 61 64 43 45 61 52 53 21 -4 -15 0 -20 14 -20 10 0 19 -4 19 -10 0 -5 -7
-10 -16 -10 -8 0 -12 -4 -9 -10 3 -5 18 -10 33 -10 27 0 81 -34 71 -44 -3 -3
-40 -11 -82 -17 -47 -7 -77 -16 -77 -24 0 -6 8 -12 18 -12 30 -1 156 15 277
36 45 7 54 30 18 46 -13 5 -23 17 -23 25 0 9 -18 34 -40 55 -22 21 -40 45 -40
51 0 20 21 28 32 13 6 -9 8 5 4 43 -3 31 -3 63 0 72 5 14 9 14 35 1 27 -14 28
-18 22 -60 -4 -36 -2 -50 12 -66 10 -11 26 -19 34 -18 43 4 44 2 38 -68 -4
-38 -3 -73 1 -80 4 -6 31 -15 59 -19 50 -6 53 -5 63 20 5 15 10 41 10 58 0 17
11 54 25 83 13 28 33 87 45 130 25 92 36 115 55 115 30 0 35 -35 15 -93 -11
-31 -20 -66 -20 -79 0 -24 -21 -120 -47 -209 -8 -31 -12 -62 -9 -68 7 -11 84
-72 150 -118 17 -12 36 -27 43 -33 17 -14 126 -12 263 6 63 8 174 21 245 30
72 8 135 17 141 19 6 2 23 36 38 76 15 41 31 76 35 79 4 3 21 25 38 50 49 72
112 125 163 138 91 22 167 23 222 2 47 -18 54 -18 68 -5 13 14 13 19 -2 46
l-18 30 22 -16 c28 -19 48 -19 84 0 16 8 40 15 54 15 41 0 68 11 75 28 4 10 9
47 11 83 2 36 10 78 19 95 8 16 15 41 15 56 0 15 4 37 10 50 9 21 30 209 24
216 -1 2 -11 -1 -22 -7 -28 -15 -55 -3 -49 20 5 18 -38 19 -1544 19 l-1549 0
0 -209z m181 158 c8 -15 8 -24 0 -32 -15 -15 -46 16 -38 37 9 22 24 20 38 -5z
m2133 -194 c-4 -8 -8 -15 -10 -15 -2 0 -4 7 -4 15 0 8 4 15 10 15 5 0 7 -7 4
-15z m-1964 -2 c0 -5 14 -22 30 -40 29 -31 38 -53 23 -53 -15 0 -29 15 -51 53
-25 43 -26 47 -12 47 6 0 10 -3 10 -7z m1973 -37 c24 -19 21 -45 -7 -52 -31
-7 -43 -50 -21 -73 19 -23 19 -51 -1 -51 -8 0 -12 -4 -9 -10 3 -5 -1 -10 -9
-10 -22 0 -20 -27 3 -57 24 -30 18 -51 -16 -55 -33 -4 -38 -33 -12 -66 l20
-25 -27 -28 c-21 -22 -24 -30 -15 -47 22 -41 13 -60 -34 -82 l-45 -20 -30 32
c-35 39 -40 61 -7 29 28 -26 41 -16 51 39 3 19 13 49 22 65 10 17 19 64 21
110 3 45 11 87 19 95 7 9 18 38 24 65 15 70 43 155 49 155 3 0 14 -7 24 -14z
m754 -78 c-3 -8 -6 -5 -6 6 -1 11 2 17 5 13 3 -3 4 -12 1 -19z m-2558 -83 c8
-11 32 -37 54 -57 48 -46 83 -106 68 -121 -7 -7 -23 3 -51 34 -22 24 -40 47
-40 51 0 4 -24 32 -53 61 -30 29 -54 60 -54 68 0 8 -4 23 -8 34 -6 15 3 10 31
-15 21 -19 45 -44 53 -55z m4838 63 c-3 -8 -6 -5 -6 6 -1 11 2 17 5 13 3 -3 4
-12 1 -19z m-2682 -38 c3 -5 1 -10 -4 -10 -6 0 -11 5 -11 10 0 6 2 10 4 10 3
0 8 -4 11 -10z m-1561 -49 c-6 -6 -24 19 -24 34 1 6 7 1 15 -9 8 -11 12 -22 9
-25z m1686 -53 c0 -6 -7 -5 -15 2 -8 7 -15 17 -15 22 0 6 7 5 15 -2 8 -7 15
-17 15 -22z m-1814 5 c6 -20 20 -48 41 -80 10 -14 11 -23 4 -28 -6 -3 -15 4
-20 17 -5 13 -21 34 -36 48 -15 14 -31 33 -36 43 -8 14 -5 17 16 17 16 0 28
-7 31 -17z m4394 -17 c0 -8 -4 -18 -10 -21 -5 -3 -10 3 -10 14 0 12 5 21 10
21 6 0 10 -6 10 -14z m-4572 -73 c-11 -14 -38 -18 -38 -6 0 3 8 15 17 25 12
14 18 15 24 6 4 -7 3 -18 -3 -25z m52 -38 c0 -8 -9 -19 -20 -25 -11 -6 -20 -8
-20 -4 0 3 -6 2 -13 -4 -15 -12 -57 -5 -57 10 0 5 9 6 20 3 29 -9 57 3 63 26
6 22 27 17 27 -6z m-320 -228 c0 -17 -20 -37 -37 -37 -16 0 -17 22 -1 38 16
16 38 15 38 -1z m135 3 c-3 -5 -11 -10 -16 -10 -6 0 -7 5 -4 10 3 6 11 10 16
10 6 0 7 -4 4 -10z m2250 -1066 c28 -9 68 -25 91 -35 23 -11 45 -19 49 -19 11
0 84 -76 113 -118 13 -17 32 -57 43 -89 25 -70 25 -71 34 -153 4 -36 11 -70
16 -76 5 -6 9 -22 9 -35 0 -13 3 -53 6 -88 6 -59 5 -65 -17 -82 -13 -10 -35
-19 -49 -19 -23 0 -22 2 13 25 26 18 37 33 37 50 0 30 -20 33 -38 5 -18 -30
-50 -26 -58 8 -4 15 -12 33 -18 41 -6 8 -15 28 -21 44 -13 39 -33 45 -41 13
-3 -14 -12 -30 -19 -36 -11 -9 -15 -4 -20 27 -7 41 -35 103 -47 103 -4 0 -10
-5 -13 -10 -9 -14 -25 -3 -36 27 -7 19 -15 24 -29 20 -11 -3 -20 0 -21 6 0 7
-5 2 -11 -10 -14 -30 -36 -29 -50 2 -14 30 -34 32 -64 4 l-22 -20 -12 33 c-9
24 -14 28 -17 15 -5 -18 -28 -17 -85 5 -34 13 -58 4 -58 -20 0 -11 -6 -25 -14
-31 -11 -9 -15 -6 -18 14 -3 14 -1 28 4 31 6 4 6 10 0 16 -13 13 -82 -22 -82
-41 0 -9 -9 -22 -20 -29 -11 -7 -20 -17 -20 -23 0 -6 -9 -22 -20 -36 l-20 -26
0 26 c0 24 -23 42 -41 31 -18 -11 -9 -53 14 -65 12 -7 24 -15 27 -18 14 -18
111 -79 150 -95 25 -10 59 -24 75 -32 30 -14 30 -14 -15 -8 -25 3 -49 10 -55
15 -5 5 -18 9 -30 9 -11 0 -33 7 -50 16 -16 9 -42 23 -57 31 -15 8 -52 38 -83
66 -41 39 -55 60 -55 80 0 15 7 30 15 33 8 4 15 13 15 20 0 8 6 17 14 20 8 3
17 22 21 42 16 88 141 276 206 309 42 22 111 43 140 43 16 0 29 4 29 8 0 12
147 -6 205 -24z m2267 -149 c3 -14 1 -25 -3 -25 -5 0 -9 11 -9 25 0 14 2 25 4
25 2 0 6 -11 8 -25z m2725 -52 c-3 -10 -5 -2 -5 17 0 19 2 27 5 18 2 -10 2
-26 0 -35z m-7207 33 c0 -3 -4 -8 -10 -11 -5 -3 -10 -1 -10 4 0 6 5 11 10 11
6 0 10 -2 10 -4z m3945 -54 c3 -26 8 -62 11 -79 3 -18 1 -33 -4 -33 -6 0 -13
26 -16 58 -4 31 -9 70 -12 86 -4 18 -2 26 4 22 6 -4 14 -28 17 -54z m3241 4
c-7 -28 -30 -35 -39 -12 -3 7 1 24 10 36 19 28 38 12 29 -24z m-5569 -485 c-2
-3 -12 -24 -22 -45 -15 -33 -19 -36 -27 -22 -9 17 -3 52 14 73 9 12 41 7 35
-6z m50 -103 c-3 -8 -6 -5 -6 6 -1 11 2 17 5 13 3 -3 4 -12 1 -19z m818 -49
c4 -17 3 -35 -3 -41 -6 -6 -11 4 -14 31 -4 48 7 55 17 10z"/>
<path d="M3260 3420 c0 -5 5 -10 10 -10 6 0 10 5 10 10 0 6 -4 10 -10 10 -5 0
-10 -4 -10 -10z"/>
<path d="M4976 5879 c61 -122 144 -300 144 -310 0 -5 5 -9 10 -9 20 0 9 64
-20 119 -16 31 -52 104 -79 164 -40 86 -54 107 -70 107 -20 0 -19 -4 15 -71z"/>
<path d="M7693 5943 c9 -2 23 -2 30 0 6 3 -1 5 -18 5 -16 0 -22 -2 -12 -5z"/>
<path d="M7848 5943 c28 -2 76 -2 105 0 28 2 5 3 -53 3 -58 0 -81 -1 -52 -3z"/>
<path d="M7916 5915 c4 -9 14 -14 23 -13 10 2 15 -3 13 -14 -2 -13 4 -18 23
-18 21 0 25 5 25 30 0 29 -2 30 -45 30 -36 0 -43 -3 -39 -15z"/>
<path d="M3337 5783 c10 -27 35 -64 40 -59 9 9 -21 76 -34 76 -8 0 -10 -7 -6
-17z"/>
<path d="M3217 5763 c-3 -5 -8 -30 -12 -58 -4 -27 -16 -87 -27 -133 -24 -100
-18 -136 25 -162 21 -13 35 -16 41 -10 6 6 25 10 42 10 34 0 52 14 34 25 -5 3
-9 16 -8 28 1 26 -26 137 -46 187 -8 19 -17 52 -21 72 -6 37 -19 56 -28 41z"/>
<path d="M7696 5722 c-6 -10 -89 -29 -168 -38 -66 -7 -71 -18 -38 -72 19 -30
22 -32 62 -26 24 4 50 14 58 24 8 10 26 21 38 25 47 14 100 -75 56 -92 -22 -8
-47 9 -55 38 -5 17 -7 19 -8 6 -1 -10 -15 -30 -31 -44 -28 -23 -30 -29 -25
-68 6 -38 4 -44 -20 -64 -15 -11 -36 -21 -46 -21 -11 0 -19 -7 -19 -15 0 -19
46 -20 64 -2 8 6 24 19 36 27 41 27 52 43 47 67 -6 30 14 45 55 41 l33 -3 3
92 c3 88 -7 133 -28 133 -5 0 -11 -4 -14 -8z"/>
<path d="M7884 5715 c-10 -8 -34 -15 -51 -15 -26 0 -33 -4 -33 -19 0 -11 -3
-26 -6 -34 -8 -22 92 -20 119 2 69 56 73 60 57 71 -22 14 -63 12 -86 -5z"/>
<path d="M3334 5608 c4 -24 12 -59 18 -78 6 -19 12 -41 14 -47 2 -7 13 -13 24
-13 31 0 25 43 -15 117 -20 34 -39 63 -42 63 -3 0 -3 -19 1 -42z"/>
<path d="M3440 5594 c0 -6 7 -19 16 -30 14 -18 14 -18 3 6 -14 31 -19 36 -19
24z"/>
<path d="M7985 5570 c-4 -6 -12 -10 -18 -9 -18 2 -57 -12 -57 -21 0 -9 36 -20
68 -20 18 0 22 6 22 30 0 31 -4 37 -15 20z"/>
<path d="M7481 5544 c0 -11 3 -14 6 -6 3 7 2 16 -1 19 -3 4 -6 -2 -5 -13z"/>
<path d="M7216 5463 c-3 -47 -11 -92 -16 -98 -7 -8 -2 -19 14 -34 l24 -23 7
45 c4 26 2 60 -4 79 -6 18 -10 50 -9 71 3 75 -9 45 -16 -40z"/>
<path d="M7440 5520 c0 -5 5 -10 11 -10 5 0 7 5 4 10 -3 6 -8 10 -11 10 -2 0
-4 -4 -4 -10z"/>
<path d="M7365 5449 c-8 -23 -1 -34 14 -24 13 8 15 45 2 45 -5 0 -13 -9 -16
-21z"/>
<path d="M7963 5459 c-6 -6 -47 -11 -92 -12 -44 -1 -81 -2 -81 -3 0 0 10 -12
21 -25 15 -16 23 -20 26 -11 3 6 14 12 25 12 18 0 19 -2 7 -17 -11 -13 -11
-17 -1 -21 9 -3 10 -8 2 -17 -8 -9 0 -16 32 -28 24 -9 55 -19 71 -23 l27 -6 0
81 c0 81 -9 98 -37 70z"/>
<path d="M7754 5410 c-21 -8 -78 -59 -72 -65 9 -9 79 -8 88 1 7 7 10 25 8 41
-3 26 -6 29 -24 23z"/>
<path d="M3399 5395 c-47 -26 -99 -116 -125 -217 -25 -100 -32 -154 -12 -108
55 131 108 209 159 235 14 7 34 30 44 50 17 31 18 37 5 45 -21 13 -40 12 -71
-5z"/>
<path d="M4285 5392 c-22 -16 -46 -64 -66 -137 -25 -91 -21 -133 5 -55 11 30
34 85 52 122 19 37 34 70 34 73 0 7 -13 6 -25 -3z"/>
<path d="M3775 5372 c-9 -6 -26 -39 -46 -87 -4 -11 -12 -40 -18 -65 -5 -25
-13 -56 -17 -69 -5 -16 -4 -22 4 -17 6 3 14 21 17 39 8 37 65 135 95 162 11
10 20 24 20 32 0 14 -38 18 -55 5z"/>
<path d="M6327 5373 c-11 -18 -19 -98 -9 -88 11 11 27 95 18 95 -2 0 -7 -3 -9
-7z"/>
<path d="M3044 5360 c-58 -13 -125 -74 -163 -149 -22 -43 -66 -209 -57 -218 3
-3 19 24 36 61 28 64 114 186 131 186 17 0 70 54 65 66 -3 7 5 20 17 29 28 20
11 34 -29 25z"/>
<path d="M6566 5332 c-8 -14 2 -401 12 -467 l8 -50 8 78 c7 70 10 79 32 87 14
6 27 16 30 24 9 24 -23 85 -51 96 -22 8 -25 15 -25 59 0 27 5 53 10 56 7 4 8
27 4 58 -7 54 -17 76 -28 59z"/>
<path d="M2614 5291 c-81 -37 -150 -130 -179 -242 -24 -95 -18 -99 27 -24 23
39 73 101 110 138 43 42 67 74 64 83 -3 8 6 20 24 29 17 9 30 20 30 25 0 15
-31 11 -76 -9z"/>
<path d="M3882 5278 c-14 -14 -16 -54 -3 -63 12 -7 21 7 27 40 5 28 -8 39 -24
23z"/>
<path d="M7600 5282 c-39 -13 43 -20 118 -10 6 1 12 5 12 10 0 8 -105 8 -130
0z"/>
<path d="M7957 5224 c-10 -11 3 -24 24 -24 10 0 19 7 19 15 0 15 -31 21 -43 9z"/>
<path d="M3450 5170 c0 -19 3 -21 12 -12 9 9 9 15 0 24 -9 9 -12 7 -12 -12z"/>
<path d="M7087 5083 c-8 -12 4 -63 14 -63 12 0 12 57 0 65 -5 3 -12 2 -14 -2z"/>
<path d="M7851 5064 c0 -11 3 -14 6 -6 3 7 2 16 -1 19 -3 4 -6 -2 -5 -13z"/>
<path d="M7570 5058 c0 -7 5 -20 10 -28 8 -12 10 -9 10 13 0 15 -4 27 -10 27
-5 0 -10 -6 -10 -12z"/>
<path d="M6670 5020 c0 -19 3 -21 12 -12 9 9 9 15 0 24 -9 9 -12 7 -12 -12z"/>
<path d="M7320 5022 c0 -33 12 -82 20 -82 4 0 10 18 12 41 3 31 0 43 -14 50
-14 8 -18 6 -18 -9z"/>
<path d="M1021 4996 c-9 -10 -7 -15 9 -19 25 -6 32 4 15 20 -10 10 -16 9 -24
-1z"/>
<path d="M994 4963 c3 -8 -3 -24 -14 -35 -11 -12 -20 -29 -20 -37 0 -10 15 0
40 27 22 24 40 44 40 46 0 2 -12 6 -26 9 -19 3 -24 1 -20 -10z"/>
<path d="M1455 4929 c11 -7 33 -23 48 -36 30 -24 72 -32 65 -11 -5 15 -63 45
-103 53 -27 6 -28 5 -10 -6z"/>
<path d="M78 4890 c-14 -4 -38 -16 -52 -26 l-25 -19 -1 -180 0 -180 33 80 c49
117 98 202 154 267 18 20 9 38 -18 38 -11 0 -22 7 -25 15 -7 16 -24 18 -66 5z"/>
<path d="M1275 4830 c-18 -8 -18 -9 5 -9 14 0 32 4 40 9 12 8 12 10 -5 9 -11
0 -29 -4 -40 -9z"/>
<path d="M886 4784 c-9 -24 -2 -26 12 -4 7 11 8 20 3 20 -5 0 -12 -7 -15 -16z"/>
<path d="M5081 4774 c0 -11 3 -14 6 -6 3 7 2 16 -1 19 -3 4 -6 -2 -5 -13z"/>
<path d="M791 4505 c-1 -11 -4 -31 -6 -45 l-6 -25 11 25 c6 13 9 33 7 45 -4
19 -4 19 -6 0z"/>
<path d="M7965 3684 c-11 -9 -47 -29 -80 -45 -33 -17 -69 -38 -80 -48 -11 -10
-31 -24 -45 -31 l-25 -13 30 -11 c17 -7 74 -10 133 -8 l102 3 0 85 c0 46 -3
84 -7 84 -5 0 -17 -8 -28 -16z"/>
<path d="M7288 3589 c-32 -18 -17 -79 19 -79 22 0 36 40 24 66 -12 26 -18 28
-43 13z"/>
<path d="M7433 3585 c-10 -27 6 -30 30 -7 l21 22 -22 0 c-12 0 -25 -7 -29 -15z"/>
<path d="M6710 3549 c0 -5 5 -7 10 -4 6 3 10 8 10 11 0 2 -4 4 -10 4 -5 0 -10
-5 -10 -11z"/>
<path d="M7882 3457 c-87 -9 -93 -11 -90 -31 2 -16 10 -21 35 -21 45 0 41 -19
-5 -22 -20 -2 -66 -7 -102 -13 -86 -13 -215 -12 -246 2 -36 17 -49 0 -35 -45
7 -20 19 -41 27 -47 16 -14 19 -70 4 -70 -5 0 -10 7 -10 17 0 9 -3 13 -7 10
-12 -13 -22 -192 -16 -294 6 -97 7 -103 28 -103 21 0 65 33 65 50 0 5 8 11 19
15 10 3 90 75 177 159 105 101 162 151 169 144 7 -6 3 -15 -10 -26 -11 -9 -28
-28 -37 -41 -9 -13 -62 -72 -118 -130 -56 -58 -117 -123 -137 -143 l-35 -38
48 -1 c291 -8 384 -17 377 -35 -3 -8 0 -14 6 -14 8 0 11 99 11 345 0 270 -3
345 -12 344 -7 -1 -55 -6 -106 -12z m-335 -183 c-3 -3 -12 -4 -19 -1 -8 3 -5
6 6 6 11 1 17 -2 13 -5z m13 -24 c0 -5 7 -10 15 -10 8 0 15 -6 15 -12 0 -9 3
-9 8 -3 11 16 46 12 50 -6 2 -9 -8 -23 -21 -32 -20 -13 -32 -14 -63 -6 -57 16
-89 59 -44 59 11 0 20 5 20 10 0 6 5 10 10 10 6 0 10 -4 10 -10z m348 -387
c-10 -2 -26 -2 -35 0 -10 3 -2 5 17 5 19 0 27 -2 18 -5z"/>
<path d="M7574 3433 c-15 -3 -20 -10 -17 -22 5 -19 35 -18 61 2 29 22 11 31
-44 20z"/>
<path d="M5112 3030 c0 -19 2 -27 5 -17 2 9 2 25 0 35 -3 9 -5 1 -5 -18z"/>
<path d="M4640 3014 c0 -8 5 -12 10 -9 6 4 8 11 5 16 -9 14 -15 11 -15 -7z"/>
<path d="M4180 2986 c0 -14 5 -28 10 -31 6 -4 10 7 10 24 0 17 -4 31 -10 31
-5 0 -10 -11 -10 -24z"/>
<path d="M3776 2971 c-8 -13 4 -42 15 -35 12 7 12 44 0 44 -6 0 -12 -4 -15 -9z"/>
<path d="M7337 2966 c-3 -8 -18 -16 -33 -18 -40 -4 -41 -25 -2 -33 18 -4 36
-13 40 -19 4 -6 8 10 8 37 0 48 -4 58 -13 33z"/>
<path d="M5570 2925 c0 -8 5 -15 10 -15 6 0 10 7 10 15 0 8 -4 15 -10 15 -5 0
-10 -7 -10 -15z"/>
<path d="M6828 2933 c7 -3 16 -2 19 1 4 3 -2 6 -13 5 -11 0 -14 -3 -6 -6z"/>
<path d="M4641 2849 c25 -80 24 -110 -6 -185 -14 -35 -28 -76 -31 -92 -5 -26
-3 -30 28 -37 18 -5 38 -9 43 -9 19 -2 35 -17 35 -32 0 -18 -78 -94 -97 -94
-7 0 -13 -4 -13 -10 0 -13 -33 -13 -47 1 -7 7 -6 23 4 52 28 81 -10 183 -86
231 -20 13 -52 38 -71 56 -53 49 -71 59 -115 60 -77 2 -113 -10 -146 -48 -40
-46 -23 -52 32 -13 52 38 88 39 146 6 50 -30 55 -45 16 -46 l-28 -1 30 -10
c52 -19 110 -63 116 -88 10 -44 44 -110 57 -110 6 0 12 -4 12 -10 0 -14 -13
-13 -28 2 -9 9 -15 9 -24 0 -9 -9 -17 -7 -35 10 -28 26 -30 43 -4 28 11 -5 23
-10 26 -10 15 0 -8 56 -32 82 -30 31 -160 98 -189 97 -14 0 -15 -2 -4 -6 21
-9 35 -25 36 -45 2 -25 -1 -23 -38 17 l-33 35 -72 -11 c-72 -11 -100 -29 -45
-29 45 0 90 -17 129 -49 40 -33 62 -39 64 -18 2 35 28 -56 29 -101 0 -88 -42
-106 -88 -38 -50 74 -141 150 -158 133 -3 -2 9 -19 26 -37 32 -35 34 -53 7
-58 -11 -2 -21 7 -28 25 l-12 28 -8 -44 c-6 -31 -17 -52 -36 -67 l-28 -22 -8
26 c-4 15 -5 39 -2 53 4 17 0 31 -14 43 -18 17 -19 17 -26 -4 -4 -13 -12 -19
-21 -16 -10 4 -19 -4 -26 -24 -12 -36 -24 -38 -33 -7 -23 80 -45 101 -45 42 0
-19 -4 -35 -10 -35 -5 0 -10 13 -10 29 0 39 -16 48 -23 13 -3 -15 -13 -36 -22
-47 -16 -19 -16 -19 -11 11 4 27 2 31 -13 27 -27 -7 -65 15 -53 30 14 17 25
83 17 97 -12 20 -32 -8 -51 -70 -19 -63 -35 -69 -53 -19 -6 18 -6 27 -1 24 6
-4 10 0 10 8 0 10 -8 13 -26 9 -28 -5 -48 -40 -57 -101 -5 -30 -47 -80 -69
-81 -23 -1 -31 78 -10 103 12 13 13 20 4 29 -18 18 -15 51 3 44 13 -4 14 -2 5
14 -19 36 -31 27 -44 -31 -11 -49 -121 -96 -243 -103 -12 0 -25 -4 -29 -8 -4
-5 -24 -8 -44 -8 -48 0 -62 -14 -85 -83 -10 -31 -20 -55 -23 -52 -12 11 -31
-19 -26 -39 3 -14 -1 -28 -10 -35 -9 -8 -16 -27 -16 -43 0 -26 -29 -82 -51
-98 -3 -3 -10 -16 -14 -30 -4 -14 -13 -32 -20 -40 -7 -8 -24 -37 -38 -65 -15
-29 -50 -71 -83 -100 -32 -27 -68 -60 -79 -72 -37 -38 -134 -43 -103 -5 11 13
11 14 -2 7 -12 -7 -13 -6 -3 7 7 8 11 18 8 21 -3 4 -2 5 2 2 9 -7 32 27 33 48
0 9 -4 17 -10 17 -14 0 -13 37 1 42 6 2 12 28 14 58 3 30 9 82 15 115 5 33 17
135 25 227 10 112 21 179 32 203 17 36 17 37 -2 51 -10 8 -24 14 -30 14 -31 0
-95 -111 -95 -165 0 -10 -9 -28 -20 -40 -21 -23 -21 -37 5 -122 5 -14 3 -23
-4 -23 -6 0 -11 -9 -11 -20 0 -13 -7 -20 -20 -20 -13 0 -20 -7 -20 -20 0 -11
-6 -20 -14 -20 -18 0 -31 51 -16 60 6 4 -19 10 -56 13 -37 4 -71 12 -75 19 -7
10 -11 10 -21 0 -6 -6 -21 -12 -33 -12 -46 0 -57 -47 -31 -133 13 -43 13 -47
-3 -47 -9 0 -21 -4 -27 -9 -5 -4 -21 -11 -36 -15 -21 -5 -28 -3 -28 9 0 8 -7
15 -15 15 -7 0 -18 7 -23 16 -5 9 -18 14 -33 12 -32 -4 -99 -56 -99 -77 0 -13
-2 -13 -9 -2 -10 15 -14 10 -30 -40 -7 -22 -20 -39 -31 -42 -16 -4 -20 -14
-20 -45 0 -25 -6 -45 -18 -55 -28 -26 -32 -21 -32 33 0 36 4 52 15 56 10 4 15
20 15 45 0 21 5 39 10 39 6 0 10 9 10 20 0 11 6 20 13 21 6 0 -4 5 -23 12 -29
10 -36 17 -38 45 -3 25 -10 36 -30 44 -22 9 -24 12 -9 15 14 4 18 13 15 38 -1
19 1 37 5 41 4 4 7 16 7 26 0 10 6 18 14 18 8 0 20 15 27 33 7 17 14 35 17 40
2 4 -3 7 -12 7 -9 0 -16 -5 -16 -11 0 -5 -4 -7 -10 -4 -6 4 -10 -7 -10 -24 0
-19 -5 -31 -13 -31 -21 0 -28 12 -15 27 6 7 9 16 6 18 -8 9 -88 -76 -88 -93 0
-15 2 -15 10 -2 6 9 10 10 10 3 0 -6 -4 -15 -10 -18 -5 -3 -10 -28 -10 -54 0
-37 -5 -52 -23 -69 -13 -12 -25 -22 -28 -22 -3 0 -6 18 -8 41 -1 22 2 38 7 35
5 -3 7 5 5 17 -3 13 2 48 10 79 14 52 13 58 -5 87 -22 34 -57 41 -80 17 -11
-11 -16 -8 -33 22 -11 19 -34 43 -51 53 -30 16 -32 16 -46 -1 -9 -10 -22 -20
-29 -22 -17 -6 -15 -7 36 -33 33 -16 41 -26 43 -52 4 -37 9 -40 38 -18 26 19
34 19 34 -4 0 -10 -7 -22 -16 -25 -10 -4 -13 -13 -9 -26 5 -16 2 -20 -15 -20
-30 0 -70 -29 -70 -52 0 -24 45 -64 90 -79 46 -15 65 -33 25 -24 -62 14 -71
19 -123 66 -30 27 -60 49 -68 49 -8 0 -26 -11 -38 -24 -13 -12 -31 -26 -40
-29 -19 -7 -10 -37 11 -37 9 0 13 -8 11 -22 -3 -20 1 -22 37 -21 22 1 53 8 70
17 16 8 32 13 35 10 7 -8 -28 -33 -80 -56 -63 -27 -141 -78 -135 -88 3 -5 -7
-28 -23 -52 -85 -127 -98 -154 -88 -186 7 -21 69 -23 88 -4 16 16 28 15 28 -3
0 -8 -9 -19 -20 -25 -27 -15 -26 -34 3 -27 12 3 55 17 96 31 41 14 76 24 78
22 6 -6 -105 -55 -162 -72 -27 -8 -63 -22 -80 -31 -16 -9 -42 -22 -57 -30 -28
-15 -78 -105 -78 -142 0 -12 -13 -33 -29 -47 -16 -14 -27 -32 -25 -38 3 -7 -6
-24 -19 -38 -29 -32 -38 -59 -24 -83 7 -13 6 -16 -2 -11 -14 9 -14 -14 -1 -48
6 -16 6 -27 0 -31 -22 -14 -9 -53 26 -80 19 -15 33 -30 30 -33 -8 -7 -86 28
-110 50 -10 9 -24 14 -32 11 -16 -6 -9 -23 10 -23 8 0 19 -7 26 -15 7 -8 22
-15 33 -15 l21 0 -21 -15 c-12 -8 -39 -21 -60 -28 -29 -9 -38 -18 -39 -36 -1
-14 -9 -30 -18 -36 -13 -10 -14 -18 -5 -44 13 -36 16 -37 42 -13 19 17 19 16
14 -28 -3 -25 -22 -78 -41 -117 -20 -39 -36 -83 -36 -98 0 -14 -5 -36 -11 -47
-7 -12 -16 -58 -21 -102 -4 -44 -13 -85 -19 -92 -6 -7 -8 -18 -4 -23 3 -6 0
-21 -6 -33 -7 -13 -13 -39 -14 -58 -4 -105 -4 -107 -26 -106 -12 1 -24 -4 -26
-11 -3 -7 19 -13 64 -18 172 -15 164 -13 161 -52 -1 -19 3 -38 10 -42 7 -4 47
-7 89 -7 l77 1 21 90 22 90 31 -3 c38 -4 42 5 7 18 -29 11 -44 39 -26 49 6 4
9 15 6 23 -4 9 -2 19 4 23 6 3 11 15 11 26 0 12 4 17 11 13 7 -4 6 3 -2 17 -7
13 -12 29 -10 34 2 6 5 23 7 38 3 36 24 87 35 87 5 0 9 9 9 19 0 11 5 23 10
26 6 3 19 23 29 43 50 99 66 120 94 125 21 3 27 0 22 -11 -3 -7 -8 -26 -11
-40 -3 -15 -14 -49 -24 -77 -9 -27 -20 -74 -24 -103 -6 -49 -14 -74 -37 -127
-11 -25 -28 -156 -22 -171 2 -7 0 -15 -6 -18 -7 -5 -7 -14 0 -29 8 -18 6 -37
-9 -80 -14 -39 -17 -57 -9 -57 112 -4 2542 2 2546 6 3 3 4 21 2 40 l-3 35 32
-16 c20 -10 33 -26 37 -45 5 -27 9 -30 43 -30 21 0 42 6 47 13 5 6 15 86 22
177 7 91 17 194 22 230 26 184 39 319 33 353 -3 21 -1 91 6 155 6 64 17 178
23 252 11 128 13 135 35 138 12 2 22 -2 22 -8 0 -20 94 -112 129 -127 l34 -14
-7 -104 c-7 -98 -6 -104 13 -115 12 -6 21 -17 21 -25 0 -10 10 -15 30 -15 17
0 33 -6 35 -12 3 -7 1 -51 -5 -98 -5 -47 -10 -115 -9 -152 0 -37 -7 -88 -15
-113 -26 -75 -31 -148 -12 -164 20 -17 21 -50 2 -77 -8 -11 -16 -36 -18 -54
-3 -30 -7 -35 -32 -37 -37 -3 -40 -7 -41 -51 -1 -20 -5 -63 -9 -95 l-8 -58
666 5 c367 2 669 6 671 7 2 2 6 102 9 222 6 213 6 219 -14 224 -26 7 -26 19 0
26 22 6 21 -12 24 347 2 218 0 250 -20 250 -8 0 -14 -4 -14 -10 0 -5 -6 -10
-14 -10 -15 0 -56 75 -56 102 0 9 -9 20 -20 23 -11 3 -20 12 -20 19 0 17 -33
46 -52 46 -9 0 -21 -7 -28 -15 -15 -18 -76 -20 -86 -3 -4 6 4 20 19 33 32 25
33 29 7 55 -11 11 -20 31 -20 45 0 14 -4 25 -8 25 -5 0 -17 7 -28 15 -18 13
-17 14 18 15 30 0 35 -3 31 -18 -3 -13 8 -23 41 -39 44 -22 45 -22 51 -3 11
35 -4 60 -35 60 -16 0 -32 5 -35 10 -3 6 -1 10 6 10 8 0 9 3 3 9 -5 5 -38 11
-73 14 -50 4 -69 9 -82 26 -12 14 -29 21 -53 21 -20 0 -36 5 -36 11 0 7 12 9
33 6 17 -4 48 -9 67 -12 19 -3 72 -18 117 -31 45 -14 87 -23 93 -19 6 3 10 45
10 96 0 79 2 90 17 87 12 -2 17 -15 18 -49 3 -57 10 -69 39 -69 32 0 44 18 43
67 0 24 6 49 13 58 13 15 79 21 81 8 7 -48 4 -98 -6 -145 -7 -32 -11 -66 -8
-77 5 -20 -25 -44 -48 -39 -6 2 -13 -2 -16 -9 -3 -8 9 -11 39 -10 l43 2 -2
-50 c-3 -78 -4 -224 -2 -552 l1 -303 28 0 c16 0 32 -4 35 -10 4 -6 -8 -10 -29
-10 l-34 0 2 -112 c1 -62 -1 -123 -5 -134 -4 -13 -3 -26 4 -33 9 -9 9 -16 -1
-31 -9 -14 -9 -26 -1 -43 8 -18 8 -30 0 -45 -6 -11 -11 -25 -11 -30 0 -17 56
-33 106 -30 42 3 51 7 62 30 9 20 17 25 33 21 12 -4 24 -14 26 -25 5 -18 52
-26 67 -11 7 7 32 9 316 19 191 7 313 8 417 5 42 -1 53 -5 58 -21 6 -19 15
-20 165 -20 100 0 161 4 165 10 4 6 14 10 23 9 24 -4 62 10 62 22 0 6 7 3 16
-5 10 -10 33 -16 62 -16 26 1 65 1 87 1 58 -1 70 6 73 36 3 38 12 42 12 6 0
-60 -22 -58 588 -54 l142 1 0 520 c0 504 -1 520 -19 520 -16 0 -31 18 -31 37
0 3 11 2 25 -1 25 -6 25 -5 25 54 0 64 -5 70 -36 42 -10 -10 -34 -24 -51 -31
-18 -7 -33 -17 -33 -21 0 -4 -45 -7 -100 -6 -55 0 -100 -3 -100 -7 0 -4 0 -14
0 -22 0 -11 11 -15 38 -15 l39 0 6 -152 c10 -231 9 -278 -7 -278 -13 0 -36
131 -36 208 0 17 -4 34 -10 37 -5 3 -10 27 -10 53 -1 26 -7 58 -14 71 -13 23
-17 23 -155 25 -114 1 -144 4 -152 16 -10 15 -7 56 6 97 6 18 -1 25 -39 48
-54 32 -85 30 -106 -7 -12 -23 -13 -31 -2 -48 6 -11 12 -36 12 -56 0 -28 -3
-35 -15 -30 -9 3 -35 -1 -58 -10 -36 -13 -150 -16 -793 -20 -529 -4 -754 -2
-759 5 -3 6 -15 11 -26 11 -10 0 -19 5 -19 10 0 14 46 60 60 60 21 0 9 18 -23
33 l-33 16 -2 217 c-3 250 1 282 34 294 23 9 272 25 349 23 67 -2 316 -1 380
2 160 6 661 20 750 20 l99 0 15 -30 c8 -16 18 -37 22 -46 4 -9 13 -93 20 -185
6 -93 14 -172 18 -175 3 -4 23 -10 44 -13 l37 -7 0 184 c0 187 4 208 40 219 8
3 27 1 42 -3 17 -5 28 -3 31 4 2 7 68 11 206 11 202 0 203 -1 221 -24 15 -20
21 -22 33 -11 9 7 13 19 10 27 -4 10 4 14 31 14 l36 0 0 101 0 101 -102 -6
c-221 -12 -669 -18 -681 -8 -6 5 -33 12 -59 14 -40 5 -48 3 -53 -13 -5 -16
-17 -19 -63 -20 -151 -2 -572 -19 -692 -28 -74 -5 -250 -13 -390 -16 -140 -4
-471 -13 -735 -20 -264 -7 -490 -9 -502 -4 -12 4 -29 22 -38 39 -12 24 -21 30
-36 25 -10 -4 -19 -2 -19 4 0 5 8 11 18 13 16 2 17 8 10 34 -10 38 -29 48 -62
31 -17 -10 -22 -17 -16 -28 5 -8 7 -24 5 -35 -2 -10 -4 -34 -4 -51 -1 -32 -3
-33 -41 -33 -36 0 -40 3 -40 25 0 18 5 25 20 25 37 0 22 28 -19 35 -35 6 -39
10 -38 33 2 31 -20 40 -105 41 -32 1 -58 6 -58 11 0 6 6 10 13 10 8 0 7 4 -3
10 -11 7 -6 10 20 10 19 0 51 5 70 11 19 5 121 12 225 15 245 5 292 11 313 35
11 13 29 19 56 19 23 0 47 7 59 17 15 14 34 17 88 16 66 -2 91 10 52 24 -10 4
-20 10 -23 14 -3 5 -28 2 -54 -6 -52 -16 -142 -8 -186 15 -35 19 -18 35 33 31
62 -3 107 7 107 25 0 22 -25 27 -65 14 -20 -7 -46 -9 -58 -6 -21 5 -22 11 -24
132 -2 107 0 131 14 146 26 29 55 22 95 -24 21 -25 38 -37 38 -28 0 8 -30 45
-66 83 -37 37 -61 67 -54 67 9 0 10 10 6 34 -6 29 -3 36 13 41 11 3 23 15 26
26 7 20 -3 64 -12 56 -2 -3 -34 5 -71 18 -36 13 -71 21 -78 18 -28 -11 -61
-97 -55 -144 1 -9 -5 -19 -14 -22 -10 -4 -15 -1 -15 10 0 17 -2 26 -46 158
-33 102 -41 115 -63 115 -18 0 -18 -2 0 -61z m247 -221 c-3 -26 -32 -35 -54
-17 -19 16 0 39 33 39 20 0 24 -4 21 -22z m-553 -36 c-7 -7 -55 27 -55 39 0 5
13 0 30 -12 16 -13 28 -25 25 -27z m551 -53 c18 -15 -7 -159 -28 -159 -12 0
-43 35 -64 73 -14 25 -14 31 -1 45 8 10 18 26 21 38 5 17 12 20 34 16 15 -2
32 -9 38 -13z m-133 -136 c16 -29 14 -80 -3 -53 -5 9 -13 9 -26 2 -15 -9 -11
-12 27 -23 49 -14 79 -35 79 -56 0 -8 11 -24 25 -37 39 -36 32 -45 -32 -40
-63 5 -140 39 -148 65 -3 9 1 29 10 45 13 26 13 30 -5 49 -27 29 -25 47 8 67
35 21 43 18 65 -19z m-119 -112 c10 -16 -21 -20 -41 -6 -17 13 -16 14 9 15 15
0 29 -4 32 -9z m-121 -108 c-7 -2 -19 -2 -25 0 -7 3 -2 5 12 5 14 0 19 -2 13
-5z m365 -30 c-3 -14 -14 -18 -48 -19 -25 0 -53 -4 -62 -8 -22 -10 -50 -4 -56
12 -2 8 10 12 40 13 24 1 57 5 73 9 48 12 57 11 53 -7z m-3519 -29 c-14 -17
-35 -18 -45 -3 -9 15 13 28 37 22 15 -4 17 -8 8 -19z m1071 -224 c0 -57 -1
-60 -25 -60 -14 0 -25 -6 -25 -12 0 -8 -5 -6 -10 4 -9 15 1 96 12 101 1 1 12
7 23 14 11 6 21 12 23 12 1 1 2 -26 2 -59z m5454 -50 c4 -5 -18 -13 -50 -19
-33 -6 -102 -24 -154 -40 -113 -33 -217 -58 -283 -67 -40 -5 -50 -3 -61 12
-21 28 -12 47 25 56 19 5 41 12 50 18 18 9 100 25 189 35 30 3 61 10 69 15 17
10 202 1 215 -10z m-3400 -25 c3 -9 0 -15 -9 -15 -8 0 -15 7 -15 15 0 8 4 15
9 15 5 0 11 -7 15 -15z m2667 5 c28 0 23 -29 -6 -40 -14 -5 -89 -10 -165 -11
-77 0 -154 -4 -171 -9 -54 -16 -245 -16 -264 0 -34 29 3 34 265 35 229 2 263
4 278 19 9 9 23 14 30 11 8 -3 22 -5 33 -5z m-3445 -81 c-9 -22 -15 -27 -15
-16 -1 21 18 61 25 54 3 -3 -2 -20 -10 -38z m-1211 22 c9 -16 -29 -74 -61 -92
-32 -20 -74 -24 -74 -9 0 6 4 10 9 10 5 0 12 8 15 18 3 10 20 23 37 29 17 7
33 21 36 32 5 22 27 28 38 12z m-915 -36 c-7 -8 -16 -12 -21 -9 -13 8 -1 24
18 24 13 0 13 -3 3 -15z m2142 -125 c3 -22 7 -25 36 -22 18 2 32 -1 32 -8 0
-6 12 -15 26 -20 14 -6 31 -23 37 -40 6 -17 17 -30 24 -30 7 0 20 -12 30 -26
15 -24 16 -37 5 -138 -11 -95 -31 -374 -32 -429 0 -9 -11 -27 -25 -39 -21 -18
-22 -23 -10 -32 12 -9 13 -25 6 -96 -5 -47 -12 -129 -16 -182 -5 -73 -10 -98
-21 -98 -7 0 -18 -9 -24 -20 -9 -17 -8 -20 10 -20 17 0 20 -6 20 -47 0 -91
-22 -215 -39 -220 -9 -3 -26 -10 -38 -16 -13 -6 -25 -8 -27 -6 -2 2 -11 90
-19 194 -19 226 -92 705 -96 633 -1 -10 -5 -18 -10 -18 -5 0 -13 -21 -19 -47
l-10 -48 -1 52 c0 28 4 55 9 58 21 13 7 165 -15 165 -8 0 -15 23 -18 60 -4 34
-11 69 -17 80 -12 22 -13 70 -2 70 32 -1 49 -13 45 -33 -3 -14 -2 -18 4 -10 4
6 24 13 43 15 l35 3 1 100 c1 128 1 126 21 118 13 -5 15 -2 8 18 -15 47 -17
117 -4 132 12 12 16 11 30 -7 9 -12 19 -33 21 -46z m116 24 c26 -41 28 -54 7
-54 -16 0 -55 35 -55 49 0 16 12 41 19 41 3 -1 16 -17 29 -36z m1389 10 c-3
-3 -12 -4 -19 -1 -8 3 -5 6 6 6 11 1 17 -2 13 -5z m-287 -79 c22 -13 23 -14 5
-14 -11 0 -38 6 -60 14 l-40 13 35 1 c19 0 46 -6 60 -14z m-751 -46 c28 -29
51 -57 51 -64 0 -12 90 -123 101 -124 8 -1 19 63 19 114 0 47 17 115 29 115
24 0 31 -33 29 -148 -2 -108 6 -160 19 -124 3 6 14 12 25 12 18 0 19 -2 7 -16
-7 -9 -22 -14 -36 -11 -13 2 -23 1 -23 -2 0 -3 -16 -16 -34 -29 -45 -31 -59
-23 -134 76 -33 42 -85 108 -116 146 -59 73 -67 92 -38 99 40 11 53 5 101 -44z
m102 38 c-1 -12 -15 -9 -19 4 -3 6 1 10 8 8 6 -3 11 -8 11 -12z m-3173 -57
c-13 -20 -45 -36 -54 -27 -11 11 22 47 43 47 21 0 22 -2 11 -20z m3742 -40 c0
-5 -4 -10 -10 -10 -5 0 -10 5 -10 10 0 6 5 10 10 10 6 0 10 -4 10 -10z m-2712
-58 c2 -14 -2 -22 -11 -22 -14 0 -73 -60 -60 -60 5 0 0 -5 -9 -11 -10 -5 -18
-15 -18 -22 -1 -14 -76 -68 -83 -60 -10 10 14 58 53 103 21 25 39 55 41 65 3
13 16 22 34 26 41 9 49 6 53 -19z m202 -2 c9 -14 -4 -40 -18 -38 -29 3 -42 -4
-42 -26 0 -30 -23 -49 -50 -41 -18 6 -19 9 -8 22 10 12 9 18 -6 29 -16 11 -24
9 -64 -21 -25 -19 -48 -35 -53 -35 -23 0 -13 23 34 73 l52 57 73 -3 c51 -2 76
-7 82 -17z m-705 -25 c-32 -26 -70 -34 -63 -13 3 7 22 18 44 25 53 16 53 16
19 -12z m145 11 c0 -8 -9 -18 -20 -21 -11 -4 -18 -10 -15 -14 6 -11 -35 -47
-62 -56 -31 -9 -29 -23 2 -17 14 2 25 0 25 -6 0 -21 -106 -20 -127 2 -9 9 68
71 99 79 23 6 27 11 18 22 -13 16 0 23 48 24 21 1 32 -4 32 -13z m700 -16 c0
-6 -4 -10 -9 -10 -5 0 -12 -11 -15 -25 -4 -14 -20 -32 -39 -41 -17 -9 -49 -32
-70 -52 -34 -33 -38 -35 -53 -20 -14 14 -14 19 10 57 15 22 33 41 40 41 8 0
17 9 21 19 8 27 75 60 98 49 9 -5 17 -13 17 -18z m125 21 c10 -18 -17 -23 -33
-7 -15 15 -15 16 5 16 12 0 24 -4 28 -9z m211 -5 c20 -20 18 -26 -8 -26 -13 0
-36 -7 -52 -15 -36 -19 -52 -14 -58 18 -4 23 -2 25 24 25 15 -1 31 2 35 5 11
12 44 8 59 -7z m2026 -71 c-3 -37 -8 -55 -15 -52 -12 4 -12 85 -1 117 10 29
19 -8 16 -65z m-2898 59 c25 -10 19 -25 -7 -19 -18 5 -31 -2 -58 -29 -38 -40
-59 -46 -59 -16 0 15 7 20 25 20 18 0 25 5 25 18 0 10 3 22 7 25 8 9 46 9 67
1z m-412 -82 c-18 -15 -32 -33 -32 -39 0 -7 -6 -13 -14 -13 -26 0 -5 37 32 58
50 27 53 26 14 -6z m1053 18 c8 -12 -27 -80 -54 -104 -22 -20 -51 -16 -51 8 0
9 16 31 35 50 19 20 35 40 35 46 0 13 27 13 35 0z m55 0 c0 -5 -10 -10 -22 -9
-22 0 -22 1 -3 9 11 5 21 9 23 9 1 1 2 -3 2 -9z m-440 -24 c0 -7 -9 -16 -20
-19 -25 -6 -26 8 -2 22 22 13 22 13 22 -3z m490 -30 c0 -14 -45 -38 -54 -29
-13 13 -5 34 17 42 25 10 37 6 37 -13z m-900 -1 c-33 -19 -49 -19 -24 0 10 8
26 14 34 14 9 0 4 -6 -10 -14z m2977 -47 c29 -32 73 -119 73 -144 0 -33 -22
-51 -72 -58 -38 -6 -48 -4 -56 10 -11 20 -4 170 10 197 12 23 20 22 45 -5z
m-297 3 c0 -5 10 -12 23 -14 l22 -4 -22 -8 c-32 -10 -29 -31 9 -65 37 -34 33
-45 -11 -35 -45 10 -83 63 -75 104 5 24 12 31 30 31 13 0 24 -4 24 -9z m589 2
c0 -5 -4 -17 -9 -28 -8 -18 -9 -17 -9 8 -1 15 4 27 9 27 6 0 10 -3 9 -7z
m-715 -84 c44 -35 31 -99 -20 -99 -36 0 -53 24 -44 64 14 62 23 67 64 35z
m3471 -39 c-27 -12 -35 -12 -35 0 0 6 12 10 28 9 24 0 25 -1 7 -9z m52 4 c-3
-3 -12 -4 -19 -1 -8 3 -5 6 6 6 11 1 17 -2 13 -5z m-2917 -14 c0 -5 -4 -10
-10 -10 -5 0 -10 5 -10 10 0 6 5 10 10 10 6 0 10 -4 10 -10z m-386 -92 c-11
-37 -24 -16 -24 40 l1 57 14 -40 c8 -22 12 -48 9 -57z m-2454 62 c0 -5 -4 -10
-10 -10 -5 0 -10 5 -10 10 0 6 5 10 10 10 6 0 10 -4 10 -10z m3010 -10 c0 -5
-4 -10 -9 -10 -6 0 -13 5 -16 10 -3 6 1 10 9 10 9 0 16 -4 16 -10z m-4210 -94
c0 -23 -18 -28 -41 -13 -15 11 -17 16 -7 20 25 10 48 7 48 -7z m6521 -431 c-1
-15 -24 -12 -29 3 -3 9 2 13 12 10 10 -1 17 -7 17 -13z m214 -25 c17 1 64 3
105 4 61 1 75 -2 75 -14 0 -13 -24 -15 -147 -16 -142 -2 -148 -1 -148 18 0 19
4 20 43 13 23 -4 56 -6 72 -5z m-5278 -19 c11 -14 22 -17 32 -12 9 5 24 7 34
6 9 -2 17 1 17 6 0 11 21 11 39 0 10 -7 3 -19 -34 -55 -50 -48 -65 -55 -65
-33 0 19 -80 77 -107 77 -13 0 -23 4 -23 8 0 29 82 31 107 3z m2798 9 c4 -6
-8 -10 -29 -10 -20 0 -36 5 -36 10 0 6 13 10 29 10 17 0 33 -4 36 -10z m130 0
c4 -6 -13 -10 -45 -10 -32 0 -49 4 -45 10 3 6 24 10 45 10 21 0 42 -4 45 -10z
m-3292 -14 c9 -7 17 -16 17 -19 0 -3 -34 -5 -75 -6 -42 0 -84 -5 -95 -11 -10
-5 -25 -10 -34 -10 -8 0 -27 -11 -42 -25 -28 -26 -49 -31 -72 -17 -9 6 -7 13
7 29 11 11 18 23 15 26 -3 2 11 8 30 11 19 4 37 13 40 21 7 20 182 21 209 1z
m142 3 c4 -6 -2 -13 -13 -16 -13 -3 -23 -17 -27 -34 -4 -16 -19 -38 -35 -49
-16 -11 -32 -29 -35 -40 -4 -11 -15 -20 -26 -20 -25 0 -25 1 16 46 19 21 35
44 35 52 0 7 5 10 12 6 7 -4 8 -3 4 4 -4 7 5 23 21 37 31 27 39 30 48 14z
m529 -9 c-5 -5 -20 -10 -34 -12 -19 -2 -26 -10 -28 -31 -2 -15 -12 -32 -23
-37 -10 -6 -19 -15 -19 -21 0 -29 -84 -79 -132 -79 -21 0 -38 4 -38 8 0 14 23
32 42 32 23 0 97 80 98 106 0 15 10 23 38 30 46 13 107 15 96 4z m-444 -44 c0
-12 -38 -33 -47 -27 -9 5 4 15 16 13 9 -2 12 2 8 12 -4 10 -1 16 8 16 8 0 15
-6 15 -14z m520 4 c-20 -13 -43 -13 -35 0 3 6 16 10 28 10 18 0 19 -2 7 -10z
m669 -73 c-12 -95 -24 -127 -49 -134 -10 -3 -21 -12 -23 -22 -3 -9 -5 -6 -6 9
0 14 10 47 24 74 14 27 25 58 25 68 0 10 4 18 9 18 5 0 12 16 16 36 11 62 14
32 4 -49z m-499 42 c0 -5 -4 -9 -10 -9 -5 0 -10 -6 -10 -13 0 -8 -9 -22 -20
-32 -11 -10 -17 -21 -15 -26 3 -4 -5 -11 -17 -15 -13 -4 -47 -18 -76 -31 -29
-13 -59 -22 -65 -19 -7 2 -4 5 6 5 9 1 17 7 17 15 0 8 16 24 36 37 20 12 42
36 49 52 17 41 105 71 105 36z m-1245 -28 c3 -6 -5 -15 -17 -22 -13 -6 -41
-31 -62 -55 -43 -49 -69 -57 -64 -21 2 13 16 29 38 39 19 10 40 29 47 43 14
25 46 34 58 16z m1115 -1 c0 -5 -24 -10 -52 -9 -39 0 -48 3 -33 9 28 12 85 12
85 0z m-536 -44 c-10 -8 -21 -12 -23 -10 -3 2 4 11 15 18 10 8 21 12 23 10 3
-2 -4 -11 -15 -18z m443 -12 c-3 -3 -12 -4 -19 -1 -8 3 -5 6 6 6 11 1 17 -2
13 -5z m-1724 -169 c4 -8 2 -17 -3 -20 -6 -4 -10 3 -10 14 0 25 6 27 13 6z
m-200 -12 c-7 -2 -19 -2 -25 0 -7 3 -2 5 12 5 14 0 19 -2 13 -5z"/>
<path d="M3717 1364 c-15 -15 -6 -53 15 -68 24 -17 36 -13 21 6 -6 7 -14 26
-19 41 -5 16 -13 25 -17 21z"/>
<path d="M3710 905 c0 -9 5 -15 11 -13 6 2 11 8 11 13 0 5 -5 11 -11 13 -6 2
-11 -4 -11 -13z"/>
<path d="M3790 900 c0 -5 5 -10 11 -10 5 0 7 5 4 10 -3 6 -8 10 -11 10 -2 0
-4 -4 -4 -10z"/>
<path d="M1537 2846 c-9 -23 4 -56 23 -56 14 0 16 6 11 32 -7 34 -25 47 -34
24z"/>
<path d="M7347 2773 c-12 -11 -8 -23 8 -23 8 0 15 7 15 15 0 16 -12 20 -23 8z"/>
<path d="M7948 2703 c-36 -18 -38 -52 -4 -46 13 3 27 0 30 -6 12 -19 -6 -103
-25 -119 -21 -19 -25 -52 -6 -52 6 0 22 3 35 6 21 6 22 11 22 120 0 123 -1
125 -52 97z"/>
<path d="M3590 2631 c0 -5 3 -17 6 -26 5 -13 8 -14 15 -3 13 20 11 38 -6 38
-8 0 -15 -4 -15 -9z"/>
<path d="M3980 2611 c0 -6 5 -13 10 -16 6 -3 10 1 10 9 0 9 -4 16 -10 16 -5 0
-10 -4 -10 -9z"/>
<path d="M530 2586 c0 -8 5 -18 10 -21 6 -3 10 3 10 14 0 12 -4 21 -10 21 -5
0 -10 -6 -10 -14z"/>
<path d="M4590 2509 c0 -18 2 -19 15 -5 8 8 15 17 15 20 0 3 -7 6 -15 6 -9 0
-15 -9 -15 -21z"/>
<path d="M7660 2500 c0 -11 5 -20 10 -20 6 0 10 9 10 20 0 11 -4 20 -10 20 -5
0 -10 -9 -10 -20z"/>
<path d="M1503 2473 c9 -9 19 -14 23 -11 10 10 -6 28 -24 28 -15 0 -15 -1 1
-17z"/>
<path d="M7933 2402 c-49 -31 -52 -37 -20 -46 20 -6 20 -7 5 -17 -24 -14 -22
-24 7 -37 28 -13 32 -34 10 -52 -22 -18 -18 -30 8 -30 48 1 57 20 57 119 0
103 -2 105 -67 63z"/>
<path d="M0 2256 c0 -128 3 -165 13 -169 8 -3 51 -1 96 4 92 10 123 2 114 -31
-3 -11 -18 -28 -33 -36 -19 -12 -27 -25 -27 -43 1 -67 -8 -124 -19 -128 -7 -3
-42 11 -78 31 l-66 35 0 -85 0 -85 36 7 c20 4 66 25 103 47 36 22 77 42 91 43
14 1 42 7 62 12 29 8 40 7 49 -4 6 -8 16 -14 22 -14 6 0 23 -12 39 -27 19 -19
31 -23 40 -16 7 5 54 18 105 27 76 15 99 16 129 6 29 -10 45 -10 78 0 22 7 47
14 54 16 11 3 10 7 -2 19 -8 8 -18 15 -22 15 -4 0 -16 7 -26 17 -18 16 -23 20
-87 58 -19 11 -53 35 -77 53 -25 17 -49 32 -54 32 -6 0 -10 5 -10 10 0 6 -5
10 -11 10 -11 0 -98 68 -134 106 -11 11 -63 48 -115 81 -52 33 -133 86 -178
117 -46 31 -86 56 -88 56 -2 0 -4 -74 -4 -164z"/>
<path d="M1040 2264 c-14 -41 -11 -45 72 -99 21 -14 47 -38 59 -55 28 -37 33
-37 47 -5 24 52 16 71 -35 87 -39 13 -49 20 -51 41 -3 25 -47 67 -70 67 -6 0
-16 -16 -22 -36z"/>
<path d="M2681 2234 c0 -11 3 -14 6 -6 3 7 2 16 -1 19 -3 4 -6 -2 -5 -13z"/>
<path d="M1385 2229 c-4 -6 -5 -12 -2 -15 2 -3 7 2 10 11 7 17 1 20 -8 4z"/>
<path d="M7643 2186 c1 -40 24 -49 48 -20 16 20 1 48 -29 52 -17 3 -20 -2 -19
-32z"/>
<path d="M7555 2200 c-8 -13 20 -24 41 -16 20 8 9 26 -16 26 -10 0 -22 -5 -25
-10z"/>
<path d="M6270 2125 c-14 -17 -7 -21 50 -28 19 -2 41 -6 49 -8 8 -2 16 3 18
13 4 17 -6 22 -68 32 -26 5 -40 2 -49 -9z"/>
<path d="M6083 2123 c-50 -6 -39 -20 20 -26 61 -6 132 4 126 18 -4 10 -89 15
-146 8z"/>
<path d="M5985 2110 c-4 -6 3 -10 14 -10 25 0 27 6 6 13 -8 4 -17 2 -20 -3z"/>
<path d="M5234 2095 c-11 -27 4 -48 29 -41 12 3 34 6 50 6 15 0 27 4 27 10 0
5 -12 12 -27 15 -16 4 -36 10 -45 16 -24 12 -28 12 -34 -6z"/>
<path d="M1857 2093 c-14 -13 -6 -23 18 -23 18 0 23 4 19 15 -6 16 -26 20 -37
8z"/>
<path d="M7591 2066 c-147 -8 -206 -15 -209 -23 -2 -7 4 -16 13 -19 9 -4 149
-1 311 6 274 12 294 15 294 32 0 16 -9 18 -102 16 -57 0 -195 -6 -307 -12z"/>
<path d="M7169 2023 c-5 -15 -9 -36 -7 -47 3 -21 3 -21 26 2 25 25 30 72 7 72
-9 0 -20 -12 -26 -27z"/>
<path d="M4550 1870 c0 -11 2 -20 4 -20 2 0 6 9 9 20 3 11 1 20 -4 20 -5 0 -9
-9 -9 -20z"/>
<path d="M0 1465 c0 -162 3 -206 12 -197 7 7 13 29 14 51 1 21 10 53 19 71 12
23 14 35 6 43 -18 18 -13 37 9 37 24 0 25 13 5 48 -8 15 -26 56 -40 92 l-24
65 -1 -210z"/>
<path d="M1072 1642 c-14 -41 1 -50 49 -28 32 14 33 14 8 15 -17 1 -29 9 -36
23 -9 21 -10 21 -21 -10z"/>
<path d="M7458 1618 c-3 -16 0 -28 6 -28 30 1 133 36 132 45 0 5 -31 10 -68
10 -65 0 -66 -1 -70 -27z"/>
<path d="M7683 1620 c-4 -15 -11 -19 -25 -14 -11 3 -30 -2 -44 -11 l-26 -17
22 -15 c20 -14 24 -13 53 13 17 16 37 34 44 41 17 15 16 23 -3 23 -9 0 -18 -9
-21 -20z"/>
<path d="M7788 1623 c7 -3 16 -2 19 1 4 3 -2 6 -13 5 -11 0 -14 -3 -6 -6z"/>
<path d="M7859 1595 c-48 -33 -48 -36 4 -69 15 -10 27 -25 27 -32 0 -20 30
-30 41 -13 16 26 11 115 -8 131 -16 13 -23 11 -64 -17z"/>
<path d="M5360 1486 c0 -9 7 -16 16 -16 9 0 14 5 12 12 -6 18 -28 21 -28 4z"/>
<path d="M5410 1490 c0 -5 9 -14 21 -20 19 -11 20 -10 9 9 -11 22 -30 29 -30
11z"/>
<path d="M805 1420 l-30 -6 25 -8 c14 -5 33 -15 43 -24 16 -14 17 -13 17 10 0
30 -13 37 -55 28z"/>
<path d="M5369 1406 c-10 -10 4 -87 15 -83 6 2 11 9 10 15 -1 7 -2 26 -2 42
-2 27 -11 38 -23 26z"/>
<path d="M7623 1364 c-3 -8 1 -23 10 -32 15 -14 17 -14 23 1 8 21 -1 47 -16
47 -6 0 -13 -7 -17 -16z"/>
<path d="M777 1353 c-12 -11 -8 -40 8 -53 17 -14 20 -61 6 -75 -12 -12 -33
-134 -25 -146 9 -15 40 -10 56 9 25 27 88 156 88 178 0 42 -108 112 -133 87z"/>
<path d="M7847 1273 c-13 -12 -7 -35 17 -64 27 -32 36 -23 36 37 0 29 -3 34
-23 34 -13 0 -27 -3 -30 -7z"/>
<path d="M7975 1267 c-4 -10 -5 -21 -1 -24 10 -10 18 4 13 24 -4 17 -4 17 -12
0z"/>
<path d="M0 1210 c0 -5 5 -10 11 -10 5 0 7 5 4 10 -3 6 -8 10 -11 10 -2 0 -4
-4 -4 -10z"/>
<path d="M5410 1192 c0 -11 7 -25 16 -33 14 -11 15 -9 12 16 -3 32 -28 47 -28
17z"/>
<path d="M74 1175 c11 -8 27 -15 35 -15 10 1 7 6 -9 15 -33 19 -50 18 -26 0z"/>
<path d="M0 1128 c0 -7 21 -22 46 -32 26 -10 66 -34 90 -52 24 -19 47 -34 51
-34 19 0 93 -43 93 -54 0 -22 32 -44 103 -69 73 -27 113 -26 98 1 -6 11 -4 20
7 28 19 14 9 44 -18 51 -11 3 -20 12 -20 19 0 13 -128 79 -137 71 -13 -14 15
-38 49 -43 22 -4 49 -16 59 -27 18 -19 18 -22 3 -30 -22 -13 -86 7 -122 38
-17 14 -38 25 -47 25 -9 0 -68 27 -130 60 -62 33 -116 60 -119 60 -3 0 -6 -6
-6 -12z"/>
<path d="M750 992 c0 -4 9 -13 20 -19 20 -13 37 -2 25 17 -7 12 -45 14 -45 2z"/>
<path d="M0 979 c0 -5 5 -9 10 -9 6 0 10 -7 10 -15 0 -9 11 -20 24 -25 33 -12
46 -35 15 -25 -13 4 -28 11 -33 16 -16 14 -26 11 -26 -9 0 -13 13 -21 45 -30
55 -15 68 -15 60 -2 -9 15 16 12 76 -9 89 -31 207 -89 230 -112 17 -17 24 -19
27 -9 7 19 -38 52 -106 80 -31 13 -66 32 -76 42 -18 17 -18 18 -2 18 10 0 16
6 13 13 -2 7 -24 12 -60 12 -31 1 -62 6 -69 13 -7 7 -19 12 -27 12 -9 0 -37
11 -63 24 -27 13 -48 20 -48 15z"/>
<path d="M0 850 c0 -5 7 -10 15 -10 9 0 29 -7 45 -15 17 -9 30 -13 30 -10 0 5
-75 45 -85 45 -3 0 -5 -4 -5 -10z"/>
<path d="M100 806 c0 -3 60 -35 134 -70 73 -35 136 -72 140 -81 9 -25 -24 -14
-157 50 -146 70 -209 96 -215 90 -8 -8 -7 -8 165 -94 147 -74 191 -101 165
-101 -20 0 -99 32 -181 73 -104 52 -151 70 -151 56 0 -6 73 -45 163 -88 96
-47 167 -87 175 -100 7 -12 22 -21 36 -21 30 0 42 16 27 34 -9 10 -8 15 5 20
9 3 20 4 25 0 18 -11 8 8 -13 27 -21 18 -21 21 -7 31 25 17 4 55 -35 64 -17 4
-76 28 -131 54 -104 50 -145 65 -145 56z"/>
<path d="M660 765 c0 -9 8 -18 18 -22 9 -3 30 -18 45 -32 24 -22 29 -23 37
-11 17 26 11 37 -30 59 -48 25 -70 27 -70 6z"/>
<path d="M386 726 c3 -8 13 -17 22 -21 13 -5 13 -2 -3 15 -21 24 -26 25 -19 6z"/>
<path d="M645 661 c-4 -26 -13 -61 -21 -76 -8 -15 -14 -38 -14 -50 0 -13 -7
-26 -15 -29 -12 -4 -13 -10 -6 -25 6 -10 8 -21 5 -24 -3 -3 -8 -36 -10 -74 -3
-37 -9 -80 -15 -95 -6 -15 -9 -41 -7 -58 3 -20 0 -30 -9 -30 -18 0 -16 -27 3
-34 22 -9 24 -8 24 9 0 8 8 15 19 15 21 0 47 35 57 76 3 16 12 48 20 72 19 57
18 68 -8 92 -21 20 -21 20 -2 20 24 0 37 23 60 105 9 33 20 67 24 76 11 21 -5
46 -40 64 -48 25 -57 20 -65 -34z"/>
<path d="M460 561 c0 -8 44 -31 61 -31 6 0 8 4 5 9 -8 12 -66 32 -66 22z"/>
<path d="M0 197 c0 -6 19 -18 42 -25 72 -23 129 -53 125 -65 -2 -7 -25 -13
-50 -15 -42 -3 -51 1 -78 27 -17 17 -32 31 -35 31 -11 0 -2 -49 11 -60 14 -12
14 -15 0 -30 -32 -36 -20 -48 48 -45 34 2 65 3 69 4 4 1 8 11 10 24 2 14 9 20
18 18 40 -11 296 5 305 19 13 20 -34 34 -143 42 -101 6 -128 12 -195 42 -43
18 -81 37 -84 40 -11 11 -43 6 -43 -7z"/>
<path d="M518 83 c-3 -15 -9 -36 -13 -45 -4 -11 -3 -18 3 -18 11 0 28 78 19
86 -2 3 -7 -8 -9 -23z"/>
</g>
</svg>
