<?xml version="1.0" standalone="no"?>
<!DOCTYPE svg PUBLIC "-//W3C//DTD SVG 20010904//EN"
 "http://www.w3.org/TR/2001/REC-SVG-20010904/DTD/svg10.dtd">
<svg version="1.0" xmlns="http://www.w3.org/2000/svg"
 width="681.000000pt" height="454.000000pt" viewBox="0 0 681.000000 454.000000"
 preserveAspectRatio="xMidYMid meet">
<metadata>
Created by potrace 1.16, written by Peter Selinger 2001-2019
</metadata>
<g transform="translate(0.000000,454.000000) scale(0.100000,-0.100000)"
fill="#000000" stroke="none">
<path d="M250 4505 c0 -22 44 -75 62 -75 5 0 8 -10 8 -22 0 -13 9 -59 20 -103
32 -130 33 -133 17 -113 -10 13 -21 15 -43 9 -31 -8 -47 -40 -18 -37 9 0 19
-4 21 -11 3 -7 -11 -11 -41 -11 -32 1 -46 6 -49 17 -3 13 -18 17 -68 19 -35 1
-85 4 -111 8 l-48 6 0 -179 c0 -144 3 -187 17 -226 17 -46 17 -49 0 -58 -9 -6
-17 -18 -17 -27 1 -16 1 -16 11 1 5 9 15 17 22 17 14 0 51 -96 42 -110 -3 -6
-2 -10 3 -10 12 0 82 -178 85 -215 2 -35 -25 -43 -31 -10 -2 11 -8 24 -13 29
-5 5 -4 -6 1 -25 6 -18 10 -35 10 -36 0 -2 -30 -3 -66 -3 -48 0 -65 -3 -62
-12 3 -7 11 -13 19 -14 8 0 29 -2 47 -2 35 -2 45 -22 11 -22 -33 0 -16 -24 18
-26 28 -1 32 3 43 40 12 38 14 39 20 16 6 -24 6 -24 18 -5 10 18 11 18 11 -10
0 -16 -6 -48 -14 -69 -8 -22 -12 -43 -10 -46 2 -3 -3 -26 -11 -51 -14 -38 -20
-69 -23 -116 -1 -7 -9 -13 -18 -13 -13 0 -14 -3 -5 -12 7 -7 12 -26 12 -42 0
-45 14 -21 39 69 28 98 60 175 73 175 9 0 7 -72 -5 -170 -2 -19 0 -41 6 -47 7
-9 5 -13 -6 -13 -13 0 -15 -9 -11 -55 5 -44 3 -55 -9 -55 -8 0 -18 14 -23 33
l-8 32 -3 -31 c-4 -30 -7 -32 -56 -39 -29 -5 -45 -10 -36 -12 21 -5 21 -72 -1
-67 -8 1 -19 3 -24 3 -5 1 -6 14 -3 30 6 26 3 29 -23 33 -29 4 -30 3 -30 -34
0 -33 3 -37 21 -35 26 3 45 -24 34 -49 -18 -42 -55 -201 -54 -234 0 -31 3 -27
20 30 11 36 27 93 35 126 19 76 30 92 72 100 39 8 39 11 7 -131 -14 -61 -25
-119 -25 -130 0 -36 18 4 36 82 10 40 19 71 22 69 12 -13 -68 -334 -123 -493
-54 -158 -56 -185 -15 -220 28 -23 43 -52 19 -38 -6 4 -13 -2 -16 -13 -3 -13
-11 -18 -19 -15 -8 3 -14 0 -14 -6 0 -6 5 -11 11 -11 6 0 8 -9 3 -22 -6 -20
-5 -21 10 -9 14 12 16 11 16 -3 0 -10 4 -14 10 -11 5 3 10 -3 10 -15 0 -12 4
-18 10 -15 5 3 10 1 10 -4 0 -16 -11 -14 -47 9 l-33 20 0 -99 c0 -91 2 -99 20
-104 19 -5 21 -2 15 36 -6 46 8 82 24 59 6 -11 11 -10 25 3 9 10 20 15 23 11
4 -3 15 2 26 11 10 10 20 16 21 14 0 -3 13 7 28 21 l28 25 -26 12 c-19 8 -24
16 -19 29 18 42 17 60 -4 71 -15 9 -27 9 -41 1 -25 -13 -25 -29 -3 -46 17 -13
17 -13 1 -14 -12 0 -18 -8 -18 -22 0 -18 -2 -20 -9 -9 -5 8 -8 30 -6 50 2 20
-2 42 -7 49 -6 6 -9 12 -7 13 31 7 62 3 101 -12 l47 -18 15 27 c8 15 30 59 49
98 22 46 42 74 56 79 11 3 21 11 21 16 0 6 4 7 10 4 16 -10 12 5 -11 42 -23
37 -38 39 -19 3 17 -32 5 -36 -16 -6 -23 36 -29 25 -9 -16 l17 -33 -37 40
c-20 22 -29 29 -21 15 24 -37 19 -46 -10 -19 l-27 24 17 -33 17 -33 -28 18
-28 18 24 -40 23 -40 -38 35 -37 35 23 -40 23 -40 -33 30 -34 30 17 -27 c28
-45 19 -45 -28 2 -41 40 -51 68 -19 56 8 -3 13 -1 11 3 -1 5 1 9 6 10 4 0 17
10 29 20 11 11 25 18 30 15 4 -3 8 2 8 11 0 12 4 14 19 6 16 -9 17 -7 13 15
-3 18 -8 22 -17 14 -6 -5 -15 -7 -18 -3 -4 3 -7 -2 -7 -11 0 -12 -5 -16 -15
-12 -9 3 -15 -1 -15 -11 0 -13 -3 -13 -15 -3 -12 10 -15 9 -15 -5 0 -15 -2
-16 -16 -4 -15 12 -16 11 -10 -11 l7 -25 -25 28 c-27 29 -33 47 -16 47 6 0 10
7 10 15 0 8 5 15 11 15 5 0 7 5 4 10 -3 6 1 10 9 10 9 0 16 4 16 9 0 5 14 12
30 16 17 4 28 11 24 16 -3 5 1 9 8 9 7 0 26 7 42 15 16 9 43 17 60 20 17 2 49
7 71 11 22 3 45 7 52 8 7 1 15 5 19 8 3 4 40 4 82 2 59 -4 195 7 255 22 4 1
42 2 85 3 l77 1 29 41 c16 23 32 55 36 73 l8 31 7 -33 c5 -21 12 -31 21 -28
17 6 38 -20 30 -39 -3 -8 -12 -15 -20 -15 -8 0 -18 -5 -22 -12 -5 -7 -2 -9 9
-5 9 3 18 1 21 -6 3 -8 7 -9 13 -2 4 6 28 11 53 11 25 1 54 3 64 5 26 5 33
-21 7 -28 -11 -3 -19 -9 -16 -13 9 -15 -17 -23 -27 -9 -8 12 -9 11 -5 -1 4
-16 49 -21 83 -9 12 4 39 4 60 -1 22 -5 52 -12 68 -15 43 -9 14 -25 -46 -25
-27 0 -48 -4 -48 -8 0 -8 90 -49 140 -65 16 -5 338 27 393 39 18 4 37 0 53
-11 14 -9 26 -15 27 -13 17 33 28 43 48 43 22 0 24 -5 27 -50 2 -40 -2 -56
-18 -75 -15 -17 -19 -32 -15 -52 5 -20 2 -30 -9 -34 -38 -15 3 -24 95 -21 54
2 99 0 99 -4 0 -13 -56 -21 -173 -25 -65 -2 -127 -6 -138 -9 -12 -4 -39 3 -67
18 -35 18 -61 24 -101 22 -50 -1 -56 -4 -62 -27 -4 -14 -4 -30 0 -35 3 -6 44
-15 91 -22 47 -7 104 -16 127 -21 60 -14 228 4 374 39 68 16 165 37 214 46 50
10 95 20 102 22 7 3 10 -3 6 -17 -5 -19 -77 -69 -106 -74 -7 -1 -23 -11 -36
-23 -12 -11 -44 -24 -69 -28 -26 -4 -55 -11 -65 -17 -22 -11 -117 -30 -172
-33 -215 -15 -229 -15 -250 -1 -11 7 -47 21 -80 31 -33 9 -74 21 -91 26 -17 5
-46 6 -64 3 l-33 -7 7 34 c15 72 19 136 7 143 -6 4 -11 2 -11 -3 0 -6 -7 -11
-15 -11 -8 0 -15 5 -15 11 0 5 -4 8 -9 5 -5 -3 -20 5 -35 19 -14 13 -26 21
-26 17 0 -4 -5 1 -11 11 -6 9 -14 15 -19 12 -5 -3 -11 4 -15 14 -3 11 -11 18
-18 15 -7 -2 -24 7 -38 20 -15 14 -30 22 -33 19 -3 -4 -6 -2 -6 4 0 5 -6 10
-12 11 -7 0 -31 7 -53 15 -22 8 -53 18 -70 21 -16 3 -50 10 -75 15 -25 5 -48
7 -52 5 -5 -3 -8 0 -8 7 0 7 -3 10 -6 6 -3 -3 -17 -2 -29 3 -16 6 -25 5 -27
-2 -3 -8 -10 -7 -26 1 -15 8 -22 8 -22 1 0 -6 -5 -8 -12 -3 -23 14 -38 12 -38
-5 -1 -15 -3 -14 -15 2 -15 20 -15 20 -16 0 0 -10 -3 -14 -5 -7 -3 7 -12 9
-20 6 -8 -3 -14 1 -14 8 0 11 -3 11 -10 -1 -9 -13 -11 -13 -20 0 -8 12 -10 12
-10 -5 -1 -19 -1 -19 -14 -2 -14 18 -14 18 -19 0 -3 -15 -6 -13 -15 10 -6 15
-16 27 -22 27 -6 0 -3 -11 5 -24 10 -15 12 -27 6 -30 -5 -4 -12 2 -16 13 -3
11 -13 25 -22 33 -16 12 -15 11 0 -12 9 -13 17 -38 17 -55 0 -21 -3 -26 -9
-16 -7 11 -10 10 -13 -5 -3 -14 -10 -8 -26 26 -12 25 -19 36 -16 25 4 -11 9
-36 11 -55 l3 -35 -15 40 c-9 22 -25 49 -37 60 -21 20 -21 20 0 -9 12 -16 22
-40 22 -55 l-1 -26 -15 25 c-14 24 -14 24 -9 -15 6 -39 6 -40 -9 -15 l-15 25
-1 -25 -1 -25 -15 25 c-15 25 -15 25 -9 -10 l6 -35 -16 28 c-21 36 -28 34 -21
-5 l7 -33 -21 38 c-24 43 -34 49 -20 11 16 -41 11 -63 -6 -31 -9 16 -18 27
-21 24 -2 -3 0 -14 6 -25 20 -37 11 -48 -10 -15 -25 40 -32 42 -19 7 15 -38
12 -42 -12 -14 -17 20 -20 21 -14 5 5 -11 11 -28 13 -37 3 -10 12 -18 20 -18
8 0 11 5 7 12 -4 6 -3 8 3 5 6 -4 57 11 113 34 79 32 110 39 136 34 19 -3 34
-10 34 -15 0 -6 19 -10 43 -10 23 0 49 -5 57 -11 13 -9 13 -10 -1 -6 -22 7
-32 -39 -16 -73 10 -20 21 -26 55 -28 33 -2 42 0 42 12 0 18 16 21 25 6 9 -15
35 -12 35 4 0 12 12 14 55 11 53 -4 129 -32 227 -81 43 -22 48 -28 48 -58 0
-18 3 -48 6 -65 6 -28 10 -31 43 -31 57 0 81 10 81 33 0 19 1 20 20 2 11 -10
20 -26 20 -36 0 -23 30 -40 58 -32 12 3 29 0 37 -7 23 -19 29 -5 10 24 -11 16
-27 26 -41 26 -18 0 -24 6 -24 21 0 15 4 19 16 15 9 -3 21 -6 27 -6 7 0 20
-14 30 -31 l17 -31 76 7 c49 4 75 3 73 -3 -6 -15 -102 -89 -127 -96 -12 -4
-33 -1 -49 7 -15 8 -66 24 -112 36 -155 39 -380 27 -861 -45 -315 -47 -307
-47 -313 -23 -7 26 -23 24 -42 -5 -11 -16 -30 -27 -54 -31 -38 -6 -38 -6 -81
-118 -24 -62 -49 -117 -57 -123 -11 -10 -13 -122 -12 -665 1 -578 3 -656 16
-671 9 -10 20 -18 26 -18 5 0 49 -18 98 -40 49 -22 95 -40 103 -40 8 0 20 14
28 30 9 22 18 30 30 26 10 -2 21 0 24 5 8 14 52 11 78 -6 43 -28 202 -48 427
-52 l217 -4 10 30 c9 27 16 31 46 31 33 0 36 -2 36 -30 l0 -30 440 0 c287 0
440 3 440 10 0 6 9 10 19 10 11 0 23 -4 26 -10 4 -6 67 -10 156 -10 l149 0 0
24 c0 13 6 26 12 28 7 3 -1 11 -17 19 -29 14 -30 16 -27 79 2 36 8 69 13 75 6
6 25 -7 54 -39 30 -32 50 -46 61 -42 8 3 47 6 85 6 54 0 71 4 76 16 11 31 -23
49 -94 49 -78 0 -94 14 -73 64 17 41 34 39 83 -10 l41 -41 28 31 c15 17 28 42
28 56 0 13 5 27 10 30 17 10 49 -5 55 -26 13 -42 60 -43 187 -7 32 10 35 13
22 23 -24 17 -2 55 31 55 14 0 25 4 25 8 0 4 12 9 28 10 139 13 143 15 159 87
12 58 39 54 72 -10 22 -41 31 -50 56 -53 45 -4 60 10 48 45 -8 22 -7 36 4 56
19 37 35 34 76 -13 l35 -41 68 7 c71 7 104 18 104 34 0 6 -9 10 -20 10 -11 0
-20 5 -20 10 0 6 11 10 24 10 13 0 29 7 36 15 7 8 30 20 53 27 38 11 41 11 63
-15 33 -39 41 -92 18 -119 -11 -11 -29 -24 -42 -29 -18 -7 -23 -15 -20 -36 3
-26 -4 -31 -77 -69 -44 -23 -100 -47 -125 -54 -25 -6 -70 -20 -100 -31 -31
-10 -118 -35 -195 -54 -108 -28 -154 -45 -200 -75 -58 -37 -165 -80 -202 -80
-10 0 -36 -7 -58 -15 -37 -13 -18 -14 226 -15 l266 0 104 46 c57 25 133 57
168 71 68 26 352 152 586 260 77 36 246 114 375 173 129 59 306 142 393 184
114 55 162 74 175 68 9 -5 39 -9 66 -10 40 -1 56 -8 93 -39 87 -73 117 -93
138 -93 20 0 45 -17 45 -31 0 -4 -21 -7 -47 -6 -36 0 -50 -5 -64 -21 -21 -27
-28 -27 -45 -5 -7 10 -16 15 -20 11 -12 -13 26 -46 60 -53 17 -4 40 -9 51 -12
19 -6 18 -6 -3 -14 -53 -20 13 -50 173 -78 63 -12 146 -21 185 -21 38 0 70 -4
70 -9 0 -5 -17 -16 -37 -24 -21 -8 -55 -28 -75 -43 -20 -16 -62 -45 -93 -64
-80 -49 -88 -63 -74 -131 11 -52 15 -81 18 -134 l1 -25 139 0 139 0 50 32 c27
18 57 38 67 43 14 8 19 28 23 90 l5 78 -31 -21 c-31 -23 -67 -29 -77 -13 -3 5
-18 6 -33 2 -61 -16 -90 9 -59 50 13 17 132 69 158 69 8 0 20 -5 27 -12 7 -7
12 -8 12 -2 3 51 11 118 16 126 4 6 23 7 43 4 20 -4 47 -6 60 -6 21 0 111 -13
168 -24 12 -3 30 -9 41 -15 11 -6 22 -8 25 -5 3 3 30 -2 60 -12 34 -11 65 -14
83 -10 l29 8 -34 14 c-26 11 -36 12 -42 3 -10 -17 -40 -3 -33 16 3 8 12 15 20
15 8 0 14 7 14 16 0 11 8 14 27 12 21 -2 28 2 36 25 5 16 7 31 4 33 -3 3 -31
12 -64 19 -69 17 -151 18 -213 4 -25 -6 -74 -13 -110 -14 -36 -2 -94 -6 -130
-10 -36 -3 -93 -8 -126 -11 -39 -3 -64 -1 -69 5 -3 6 -20 11 -37 11 -17 0 -29
3 -25 6 3 3 31 6 61 6 31 1 56 4 56 9 0 19 -78 79 -110 85 -59 10 -153 36
-183 51 -47 23 -27 38 50 37 72 0 221 -42 254 -70 8 -8 21 -14 27 -14 7 0 12
-8 12 -18 0 -43 49 -48 91 -9 16 15 33 20 67 18 32 -1 43 1 40 11 -6 18 -67
38 -163 54 -44 7 -105 17 -136 22 -30 6 -75 20 -100 33 -38 20 -58 23 -144 22
-55 0 -112 -6 -128 -12 -31 -12 -77 3 -77 25 0 8 -13 20 -28 28 -15 8 -33 26
-40 40 -6 14 -24 33 -39 43 -15 10 -40 30 -55 44 -15 15 -46 36 -69 48 -23 12
-67 43 -98 68 -31 25 -79 56 -108 69 -28 13 -73 42 -99 65 -26 22 -70 52 -99
66 -41 20 -53 32 -62 61 -14 43 -13 45 29 65 29 13 44 13 118 1 47 -7 112 -25
145 -39 120 -50 277 -86 289 -66 4 6 15 11 24 11 12 0 13 -3 4 -12 -23 -23
-12 -34 51 -48 76 -18 79 -18 84 -3 2 6 -4 11 -14 11 -25 -2 -93 29 -93 41 0
11 83 -11 104 -28 7 -6 26 -10 42 -10 16 0 64 -3 107 -7 55 -5 77 -3 77 5 0 7
-19 11 -49 11 -41 0 -60 7 -108 39 -49 33 -68 39 -111 39 -29 1 -62 4 -74 7
-11 4 -32 1 -45 -6 -27 -14 -20 -16 -213 58 -36 14 -76 27 -90 28 -14 1 -94
26 -178 54 -191 65 -256 78 -277 57 -19 -18 -19 -27 -1 -20 19 7 56 -13 56
-31 0 -8 -5 -15 -10 -15 -15 0 -1 -81 18 -102 14 -17 13 -18 -11 -18 -14 0
-74 -15 -134 -34 -59 -19 -173 -51 -253 -71 -80 -21 -160 -46 -177 -57 -18
-11 -37 -17 -43 -13 -23 14 1 172 28 183 8 3 26 -2 41 -11 23 -14 31 -14 47
-3 10 7 42 16 71 19 29 3 65 13 82 21 16 9 56 18 88 22 95 10 94 13 -12 65
-55 27 -94 49 -87 49 6 0 12 7 12 15 0 11 11 15 36 15 24 0 33 -4 28 -12 -4
-7 -3 -8 5 -4 17 11 5 23 -36 37 -35 11 -38 10 -58 -15 -11 -14 -27 -26 -34
-26 -14 0 -76 23 -276 105 -71 29 -209 83 -305 120 -191 73 -321 128 -316 133
2 1 16 -2 32 -8 21 -8 30 -8 32 0 6 16 140 1 175 -20 16 -10 24 -21 19 -24 -6
-4 -13 -2 -17 3 -3 5 -13 10 -23 10 -54 3 -100 8 -122 14 -14 4 -7 -2 15 -12
22 -11 46 -20 53 -20 7 -1 26 -8 41 -16 16 -8 48 -19 71 -24 35 -8 41 -7 38 7
-2 9 -14 19 -28 23 -22 6 -23 7 -6 14 12 5 21 3 27 -6 5 -8 9 -10 9 -6 0 4 9
3 20 -3 17 -9 20 -8 20 14 0 26 -16 36 -61 36 -31 0 -99 24 -99 36 0 3 7 4 15
0 8 -3 22 -3 30 0 27 11 -6 44 -43 44 -18 0 -46 7 -62 15 -16 9 -51 17 -77 20
-46 4 -47 4 -15 -7 33 -11 43 -28 16 -28 -8 0 -25 5 -37 11 -12 7 -30 12 -41
13 -28 1 -31 24 -4 29 13 2 0 5 -29 6 -58 1 -83 8 -83 23 0 7 18 8 49 4 101
-13 110 22 16 65 -76 34 -210 57 -375 64 -108 4 -113 4 -75 -9 22 -8 51 -15
65 -15 25 -1 129 -46 187 -82 28 -18 31 -23 23 -45 -9 -22 -6 -27 23 -40 69
-32 -18 -2 -247 85 -131 50 -248 91 -260 91 -12 0 -52 -16 -90 -34 -57 -28
-74 -32 -93 -23 -13 5 -23 18 -23 29 0 21 -11 22 -60 8 -63 -18 -69 -10 -63
80 5 70 4 80 -11 80 -17 0 -37 37 -29 56 2 6 24 9 56 6 29 -2 102 2 162 8 218
24 268 24 288 2 23 -26 13 -49 -26 -57 -50 -11 -76 -31 -70 -55 5 -18 13 -20
79 -20 l73 0 3 37 c3 42 23 55 33 22 4 -12 10 -18 14 -13 9 13 121 17 121 4 0
-6 13 -1 29 11 17 12 39 19 56 17 33 -4 47 -28 16 -28 -12 0 -21 -5 -21 -11 0
-6 8 -8 18 -6 58 17 93 17 123 1 21 -10 44 -14 68 -10 31 5 53 -5 180 -78 81
-46 199 -109 263 -139 64 -31 125 -65 135 -76 10 -11 122 -61 248 -112 127
-50 278 -111 336 -135 59 -24 109 -44 111 -44 3 0 10 17 16 39 7 21 19 45 28
52 14 11 20 9 40 -14 35 -41 29 -21 -11 34 -19 27 -35 61 -35 76 0 39 74 141
103 143 4 0 7 -26 7 -57 0 -37 8 -73 20 -98 l20 -40 -5 40 c-3 22 -5 59 -5 83
0 23 -3 42 -9 42 -13 0 -19 101 -8 125 9 17 39 46 70 67 11 6 -10 45 -44 81
-9 10 -25 39 -35 65 -26 71 -43 91 -93 115 -38 18 -47 27 -49 53 -5 53 17 61
143 54 63 -4 111 -3 113 2 2 5 10 4 18 -3 22 -18 28 -4 25 64 -1 41 4 78 15
106 16 42 16 42 -8 69 -27 30 -50 96 -41 119 4 11 14 13 37 7 17 -4 47 -7 66
-8 31 -1 35 2 38 28 2 15 1 40 -3 53 -6 24 -9 25 -53 18 -26 -3 -65 -9 -87
-12 -22 -3 -46 -10 -53 -16 -9 -7 -18 -5 -30 7 -25 21 -48 20 -82 -4 -26 -19
-38 -60 -18 -60 12 0 10 -38 -2 -45 -5 -3 -10 -34 -10 -69 0 -71 20 -102 71
-113 20 -4 29 -12 29 -24 0 -11 -3 -18 -7 -17 -18 5 -82 -25 -103 -47 -26 -28
-52 -32 -69 -11 -16 19 -17 85 -1 122 11 26 11 37 -5 78 -12 30 -27 51 -41 56
-12 5 -25 14 -29 20 -12 20 -34 -22 -35 -66 0 -22 -4 -44 -9 -50 -5 -5 -11
-22 -13 -39 -2 -19 -9 -31 -21 -33 -16 -3 -18 2 -12 55 7 62 -5 113 -28 113
-30 0 -47 35 -47 97 l0 61 50 36 c53 38 60 67 14 58 -14 -2 -37 1 -50 9 -31
16 -44 2 -44 -52 0 -38 -19 -62 -56 -73 -12 -4 -24 -16 -27 -26 -6 -23 -46
-27 -65 -8 -7 7 -12 29 -12 50 0 47 -13 49 -80 11 -45 -25 -51 -26 -97 -15
-76 19 -153 18 -192 -2 -49 -26 -105 -30 -125 -11 -8 9 -20 35 -26 58 -6 23
-32 109 -57 191 l-46 150 13 110 c24 206 26 260 13 376 -7 63 -13 147 -15 185
-1 39 -8 79 -14 90 -6 11 -15 51 -18 89 -6 59 -25 125 -26 89 0 -6 -5 -24 -12
-40 -7 -15 -13 -50 -13 -78 0 -49 -1 -50 -30 -50 -19 0 -56 -16 -95 -42 -125
-80 -178 -90 -257 -48 -29 16 -49 22 -51 15 -7 -21 8 -39 49 -58 34 -16 47
-17 70 -9 24 10 31 8 44 -8 8 -11 15 -30 15 -43 0 -19 4 -21 25 -16 21 5 25 3
24 -17 0 -13 3 -37 8 -54 7 -23 16 -31 39 -33 16 -2 55 -12 86 -23 32 -10 69
-19 82 -19 33 0 46 -26 46 -92 0 -60 -26 -121 -52 -126 -19 -4 -26 10 -49 86
-7 23 -17 42 -24 42 -15 0 -35 -21 -35 -36 0 -7 -15 -39 -33 -71 -39 -68 -57
-163 -31 -163 8 0 26 -12 39 -26 19 -20 30 -25 52 -20 22 5 34 1 50 -16 36
-40 113 -308 99 -345 -5 -13 -17 -14 -64 -9 -31 4 -102 11 -157 16 -135 12
-213 26 -241 45 -28 18 -29 27 -7 61 26 40 37 217 16 271 -19 52 -7 75 35 67
34 -6 57 9 49 30 -5 13 -15 15 -46 10 -38 -6 -40 -5 -46 22 -13 58 -37 92 -70
98 -18 4 -41 16 -52 29 -28 31 -73 134 -73 168 0 16 -7 44 -16 62 l-16 34 76
74 c65 63 76 78 77 109 0 19 6 50 13 69 13 35 32 45 141 68 42 9 46 19 30 69
-9 29 33 42 55 16 13 -15 20 -16 49 -6 45 15 56 37 35 69 -10 15 -14 34 -10
50 6 24 19 33 129 93 l42 22 -125 -5 c-69 -3 -134 -5 -145 -6 -11 0 -43 3 -70
6 -48 7 -51 6 -63 -19 -7 -15 -12 -33 -12 -40 0 -19 -37 -49 -54 -43 -8 3 -20
22 -26 43 -11 33 -11 39 6 51 15 11 -64 13 -485 13 l-504 0 5 -50 c3 -28 1
-53 -3 -56 -5 -3 -9 13 -9 35 0 65 -6 71 -67 71 -40 0 -54 -3 -50 -13 8 -22
35 -151 45 -217 12 -79 6 -136 -19 -172 -21 -29 -19 -39 19 -112 14 -28 30
-68 35 -90 28 -128 48 -253 53 -346 7 -102 8 -106 40 -137 18 -18 38 -33 43
-33 6 0 14 18 17 40 6 37 9 40 40 40 18 0 36 5 39 11 16 25 27 -2 30 -70 2
-80 11 -94 58 -88 36 5 45 -28 22 -74 -25 -48 -128 -149 -152 -149 -11 0 -41
-9 -66 -20 -34 -15 -71 -21 -141 -23 -89 -2 -95 -3 -101 -24 -7 -28 -22 -30
-30 -3 -8 27 -21 25 -41 -5 -9 -14 -23 -25 -31 -25 -8 0 -17 -9 -20 -20 -3
-11 -8 -20 -12 -20 -3 -1 -37 -5 -75 -10 -56 -7 -74 -6 -92 7 -26 17 -46 10
-42 -15 2 -12 -5 -18 -24 -20 -33 -4 -36 -30 -13 -108 l14 -49 97 3 c76 3 95
1 92 -10 -6 -16 -45 -25 -112 -27 -45 -1 -48 -2 -42 -23 17 -56 16 -60 -8 -23
-14 22 -36 69 -47 105 -12 36 -24 69 -27 74 -2 4 -6 27 -8 50 -6 80 -16 93
-76 98 -29 2 -54 3 -56 2 -2 -1 0 -17 5 -36 12 -47 5 -81 -14 -74 -12 5 -13 3
-5 -7 9 -11 4 -17 -26 -32 -20 -10 -50 -18 -66 -17 -16 0 -42 -6 -57 -14 -35
-17 -39 -18 -39 0 0 24 27 37 102 48 64 10 69 12 43 19 -29 8 -121 -12 -157
-35 -9 -5 -21 -7 -25 -3 -4 5 -2 12 5 16 7 4 10 15 7 23 -4 9 -2 19 4 23 16 9
13 25 -4 25 -8 0 -16 10 -17 23 0 12 -2 29 -2 37 -1 12 -14 14 -66 11 -82 -4
-93 -12 -85 -65 l7 -42 -44 2 c-80 2 -98 12 -99 53 l-2 36 -6 -40 -7 -40 -8
40 c-16 77 -16 85 -7 85 5 0 12 -8 15 -17 2 -10 4 7 3 37 l-1 54 255 1 c201 0
259 3 272 14 9 7 14 17 11 22 -3 5 -129 9 -280 9 -262 0 -274 1 -274 19 0 10
-9 49 -20 85 -19 60 -19 68 -5 82 8 8 15 22 15 30 0 18 -36 54 -53 54 -7 0
-19 17 -26 38 -8 20 -16 43 -18 50 -3 7 3 12 15 12 11 0 22 -6 25 -12 2 -7 12
14 21 47 9 33 24 78 32 99 8 22 19 58 24 80 9 42 37 150 46 175 4 11 7 12 17
2 9 -9 9 -14 -3 -22 -11 -8 -5 -9 23 -5 27 3 37 1 37 -9 0 -7 -8 -15 -17 -18
-10 -2 5 -3 32 -3 53 1 68 10 59 39 -4 13 0 17 18 17 15 0 31 -12 47 -35 13
-20 31 -34 40 -33 11 2 25 -15 43 -52 15 -30 27 -60 27 -65 1 -7 -45 -10 -131
-8 -73 2 -143 1 -155 -2 -28 -7 -30 -25 -4 -25 14 0 18 -5 14 -19 -6 -22 18
-27 186 -37 l114 -7 -7 26 c-9 37 -2 34 25 -10 18 -31 23 -53 23 -115 1 -63 5
-82 24 -107 27 -37 27 -40 0 -51 l-23 -9 23 0 c17 -1 22 -6 20 -18 -3 -13 6
-21 27 -29 18 -7 30 -18 31 -30 2 -46 5 -54 14 -54 6 0 10 6 9 13 -1 6 3 24 9
40 12 29 42 37 42 12 0 -11 4 -13 18 -6 9 5 25 12 34 15 11 3 15 11 12 20 -3
9 3 19 16 26 20 11 20 12 4 24 -19 14 -3 33 18 20 6 -4 8 -3 4 4 -3 6 -2 13 3
17 6 3 13 25 16 48 5 34 2 51 -15 80 -21 36 -21 38 -6 105 9 42 14 94 11 133
-2 35 -7 124 -9 197 -5 126 -4 132 14 132 11 0 20 6 20 14 0 12 -54 32 -108
38 -12 2 -22 8 -22 13 0 6 29 10 65 10 36 0 65 4 65 10 0 6 -10 10 -23 10 -13
0 -22 7 -22 15 0 14 8 16 73 19 12 1 22 6 22 12 0 25 127 109 166 109 8 0 14
7 14 15 0 16 -27 20 -48 6 -18 -11 -62 -1 -62 14 0 7 -9 15 -19 18 -15 4 -18
1 -14 -12 6 -15 5 -15 -13 1 -21 18 -81 36 -104 31 -31 -7 -62 -83 -34 -83 8
0 16 1 17 3 2 1 11 -4 20 -11 10 -8 17 -9 21 -3 9 14 36 2 36 -15 0 -8 5 -14
10 -14 6 0 10 -4 10 -9 0 -9 -36 -21 -83 -27 -24 -3 -26 -1 -17 15 7 15 6 20
-6 25 -24 9 -61 7 -88 -6 -21 -9 -23 -13 -12 -22 8 -6 23 -27 34 -46 l19 -36
-23 -11 c-13 -6 -24 -7 -24 -2 0 5 -12 4 -27 -2 -15 -6 -42 -9 -60 -7 -17 1
-35 -1 -39 -5 -14 -14 -22 -7 -18 16 l5 22 -10 -22 c-13 -28 -35 -31 -26 -4 5
16 2 18 -15 14 -15 -4 -20 -1 -20 15 0 16 5 19 21 15 20 -5 21 -3 15 21 -9 34
8 40 59 20 l40 -15 -45 6 -45 5 25 -20 c14 -11 33 -20 43 -20 10 0 26 -4 35
-9 10 -5 30 -7 45 -4 22 4 25 8 16 19 -6 8 -21 14 -33 15 -20 0 -21 1 -1 9 11
5 16 9 10 10 -5 1 -25 3 -44 6 -35 4 -111 42 -146 72 -38 33 -105 112 -105
123 0 7 18 -9 41 -34 22 -26 61 -60 87 -78 26 -17 41 -25 35 -18 -29 29 -3 41
28 13 10 -9 24 -14 31 -11 7 2 18 6 23 7 6 1 19 9 30 16 11 8 30 14 42 14 24
0 31 14 13 25 -8 5 -7 12 2 22 10 12 8 18 -12 34 -14 10 -30 19 -37 19 -6 0
-18 3 -27 6 -11 4 -16 1 -16 -10 0 -9 -6 -16 -14 -16 -8 0 -16 -6 -19 -12 -3
-10 -7 -10 -19 0 -9 7 -22 10 -31 6 -10 -3 -20 2 -27 15 -10 20 -19 21 -154
21 l-143 0 -7 -122 c-6 -105 -32 -296 -35 -261 -1 6 -17 17 -36 23 -43 14 -50
24 -29 44 16 17 49 22 40 7 -3 -5 0 -11 8 -14 20 -8 34 57 42 201 l7 122 -176
0 -177 0 0 -25z m37 -443 c14 -9 32 -121 33 -196 0 -39 3 -47 16 -42 8 3 21 0
28 -6 14 -14 5 -71 -18 -116 l-14 -26 -17 39 c-61 145 -98 297 -81 340 6 16
33 20 53 7z m2062 -188 c39 -25 44 -26 80 -14 41 13 61 8 61 -16 0 -23 -21
-26 -110 -15 -46 6 -86 9 -88 6 -13 -13 117 -58 191 -67 85 -9 108 -21 133
-70 35 -67 11 -92 -72 -77 -32 6 -80 13 -106 14 -25 2 -50 5 -55 8 -31 20 -51
-58 -56 -218 -2 -70 -21 -83 -56 -39 -26 33 -26 46 -1 69 32 29 24 49 -31 84
-40 24 -50 36 -47 54 2 17 11 23 42 27 54 7 65 28 36 68 -17 23 -21 38 -16 62
3 17 1 41 -5 52 -7 14 -8 23 -1 30 8 8 4 16 -11 28 -19 16 -20 20 -7 35 19 23
66 15 119 -21z m285 -287 c16 -12 17 -16 5 -35 -12 -19 -10 -29 19 -86 23 -46
39 -66 55 -68 14 -2 25 -13 30 -33 5 -16 16 -46 25 -65 8 -19 17 -73 20 -120
3 -78 2 -87 -19 -109 -13 -14 -23 -39 -25 -62 -3 -48 -11 -61 -33 -54 -11 3
-27 -5 -44 -25 -15 -16 -32 -30 -38 -30 -6 0 -9 -9 -6 -19 3 -11 -3 -30 -12
-43 -21 -30 -23 -79 -4 -100 8 -9 12 -21 9 -26 -3 -5 8 -15 24 -22 16 -7 35
-19 41 -27 7 -8 41 -27 75 -44 45 -21 73 -42 99 -75 59 -78 42 -90 -40 -28
-45 34 -137 74 -197 85 -126 24 -160 27 -190 19 -18 -6 -38 -6 -48 0 -22 12
-107 2 -135 -15 -11 -7 -35 -16 -54 -20 -26 -6 -32 -11 -28 -27 13 -49 -29
-66 -56 -24 -14 21 -22 23 -61 19 -29 -4 -46 -2 -46 5 0 6 5 12 12 14 7 3 12
18 13 34 0 27 2 29 38 26 43 -3 79 12 71 32 -4 10 23 16 117 25 67 7 155 12
195 12 40 0 75 3 78 7 2 4 -3 27 -11 51 -10 31 -11 47 -4 54 8 8 2 14 -19 23
-35 15 -38 32 -10 67 16 20 18 31 11 50 -13 33 -31 44 -45 26 -7 -9 -31 -15
-66 -15 -85 -2 -122 -10 -133 -29 -7 -14 -5 -22 14 -36 20 -15 22 -21 13 -46
-7 -20 -20 -31 -49 -41 -71 -22 -69 -21 -55 -37 10 -12 10 -18 0 -30 -14 -17
-40 -20 -40 -5 0 6 6 19 13 30 10 17 9 22 -3 30 -14 9 -78 16 -110 11 -22 -3
-32 -3 -62 2 -16 2 -28 0 -28 -4 0 -5 -9 -9 -20 -9 -24 0 -35 22 -25 48 6 16
8 16 21 -3 12 -16 16 -17 23 -6 5 7 6 22 4 32 -4 16 0 19 26 19 17 0 31 -5 31
-10 0 -22 30 -20 69 4 24 15 41 34 41 45 0 17 -11 18 -153 18 -86 0 -161 4
-171 10 -15 9 -12 11 20 16 22 3 95 6 164 7 69 0 152 5 184 10 31 5 71 7 87 3
17 -3 35 0 44 7 8 7 39 13 67 14 59 1 54 -8 64 106 5 53 11 71 36 99 l30 34
-26 14 c-15 8 -31 11 -36 8 -6 -4 -24 5 -41 19 -17 14 -35 26 -40 26 -5 0 -9
8 -9 19 0 20 39 51 65 51 24 0 65 52 59 75 -7 28 30 62 49 46 11 -9 17 -8 27
3 15 20 5 36 -24 36 -25 0 -46 17 -46 37 0 18 149 18 174 0z m-2084 -702 c0
-8 -4 -15 -9 -15 -5 0 -7 -9 -4 -20 3 -11 9 -20 14 -20 5 0 9 -5 9 -11 0 -5
-6 -7 -12 -3 -7 4 -5 -2 5 -13 9 -11 17 -26 17 -33 0 -9 -5 -7 -15 6 -13 17
-14 17 -15 2 0 -9 4 -19 10 -23 5 -3 6 -13 3 -22 -6 -14 -8 -14 -19 2 -11 15
-16 16 -29 5 -12 -10 -13 -16 -4 -27 7 -7 9 -16 6 -19 -3 -3 -10 3 -16 14 -7
13 -26 22 -56 26 -25 4 -45 13 -45 19 0 7 -4 6 -10 -3 -7 -12 -10 -11 -16 5
-4 11 -12 23 -18 27 -7 5 -5 8 5 8 9 0 28 -9 43 -21 15 -12 41 -22 59 -23 29
-1 32 2 33 29 1 51 3 55 22 48 15 -6 15 -4 4 9 -7 9 -27 20 -43 23 -22 5 -29
12 -29 31 0 21 5 24 35 24 24 0 35 5 35 15 0 12 4 11 20 -5 11 -11 20 -27 20
-35z m2494 -96 c9 -8 12 -26 9 -45 -4 -26 -13 -35 -54 -54 -28 -12 -63 -33
-80 -47 -29 -25 -30 -25 -45 -7 -22 29 -74 132 -74 148 0 19 35 25 143 22 61
-2 92 -7 101 -17z m-1044 -40 c53 -11 54 -12 32 -27 -13 -8 -22 -25 -22 -39 0
-23 -3 -25 -27 -19 -29 7 -118 10 -185 6 -21 -1 -42 -8 -49 -16 -15 -18 -29
-18 -29 1 0 18 -70 21 -102 4 -20 -11 -20 -11 -2 20 12 20 26 31 41 31 12 0
44 7 70 16 28 10 75 16 110 15 49 -1 67 3 80 17 10 10 20 15 23 10 3 -4 30
-13 60 -19z m495 -847 c6 -4 18 -19 28 -34 22 -35 41 -35 80 -2 28 24 35 25
100 20 38 -4 73 -9 78 -12 5 -3 0 -15 -12 -27 -18 -20 -19 -23 -3 -34 12 -8
22 -9 35 -2 15 8 19 5 23 -13 11 -54 15 -124 8 -136 -12 -19 -150 -45 -201
-38 -57 8 -87 27 -96 63 -13 52 -33 65 -91 57 l-51 -6 -37 67 c-21 36 -35 72
-32 80 3 9 26 15 68 18 35 2 70 4 78 5 8 1 20 -2 25 -6z m-304 -302 c34 0 54
-26 81 -107 21 -66 23 -142 4 -168 -11 -16 -31 -19 -132 -23 -115 -5 -119 -5
-165 -39 -26 -19 -50 -39 -53 -46 -2 -7 -5 0 -5 14 -1 15 -10 46 -21 70 -11
24 -20 64 -20 89 0 25 -7 77 -15 115 -20 93 -19 106 5 74 19 -25 21 -26 68
-14 27 7 60 11 74 8 15 -3 38 4 59 17 23 14 43 19 63 15 16 -3 41 -5 57 -5z
m-525 -232 c9 -17 18 -40 20 -52 2 -12 7 -43 13 -71 31 -169 33 -189 15 -230
-14 -35 -18 -37 -24 -20 -4 11 -10 43 -14 70 -4 28 -16 107 -27 177 -25 151
-19 196 17 126z m2084 -102 c35 -92 19 -126 -61 -126 -39 0 -65 -8 -117 -37
-45 -25 -145 -60 -312 -109 -335 -98 -450 -134 -482 -150 -15 -8 -36 -14 -46
-14 -11 0 -86 -23 -168 -51 -82 -27 -168 -55 -192 -60 -62 -15 -70 -33 -64
-138 l5 -89 -39 -4 c-31 -4 -46 0 -72 19 -28 21 -32 29 -26 52 3 14 6 37 5 51
0 14 -2 48 -4 75 -3 63 -30 105 -66 105 -37 0 -47 -10 -54 -50 -7 -38 -1 -53
25 -63 10 -3 18 -19 20 -39 4 -48 -12 -151 -26 -166 -7 -7 -32 -14 -56 -15
-42 -2 -44 -1 -53 33 -5 19 -12 78 -16 132 -6 77 -14 108 -37 154 -26 52 -29
67 -29 160 0 125 10 143 65 120 19 -7 41 -10 49 -6 24 11 83 31 111 36 14 3
29 9 35 15 5 5 17 9 27 9 10 0 18 5 18 10 0 17 25 11 37 -10 8 -12 10 -36 6
-65 -5 -39 -1 -56 31 -120 33 -67 40 -75 65 -75 16 0 34 -7 41 -15 7 -8 19
-15 28 -15 15 0 204 58 211 65 6 7 -27 35 -41 35 -28 0 31 29 112 54 215 69
232 72 255 46 10 -11 24 -20 32 -20 18 0 189 54 271 86 34 13 73 24 85 24 31
0 117 30 117 40 0 25 -102 9 -136 -21 -24 -22 -64 -25 -64 -5 0 27 70 57 222
97 84 22 171 46 193 54 60 21 84 19 95 -9z m-2615 -86 c21 -22 44 -40 50 -40
15 -1 85 -94 135 -178 l43 -74 99 4 c54 1 98 0 98 -4 0 -18 -69 -41 -122 -41
-32 1 -58 0 -58 -2 0 -1 16 -37 35 -80 47 -101 93 -169 108 -157 7 5 54 12
104 15 79 5 94 3 102 -11 12 -21 -31 -56 -59 -47 -22 7 -26 -5 -9 -22 16 -16
3 -32 -21 -26 -15 4 -20 0 -20 -16 0 -11 -4 -21 -10 -21 -5 0 -10 -13 -10 -29
0 -36 -26 -99 -52 -128 -17 -18 -25 -20 -40 -12 -13 7 -23 7 -32 0 -16 -13
-31 19 -40 86 -4 24 -15 58 -26 75 -11 18 -20 42 -20 53 0 11 -7 30 -15 41 -8
12 -18 48 -24 80 -10 60 -102 252 -217 452 -73 127 -73 158 1 82z m3309 -239
c16 -17 34 -40 40 -53 9 -19 22 -24 67 -28 68 -6 89 -22 89 -66 0 -26 -7 -39
-33 -58 -19 -15 -40 -26 -47 -26 -8 0 -50 -17 -94 -39 -45 -21 -135 -60 -201
-85 -66 -26 -173 -72 -237 -102 -74 -35 -124 -53 -136 -50 -21 7 -37 65 -48
178 -6 62 -5 67 17 79 13 8 33 14 44 16 11 1 60 13 109 27 49 14 126 28 170
32 45 3 85 10 90 14 5 5 4 22 -3 41 -19 55 -15 66 34 84 24 10 51 28 60 41 21
32 45 30 79 -5z"/>
<path d="M3570 4505 c0 -16 -11 -32 -30 -47 -32 -23 -40 -62 -15 -71 8 -4 21
-28 28 -54 14 -47 15 -48 51 -45 53 4 73 -11 80 -62 8 -53 25 -70 28 -29 1 15
3 37 4 48 1 11 2 28 3 37 2 31 36 40 72 19 24 -15 38 -17 62 -10 50 14 82 11
111 -12 29 -22 47 -25 111 -14 30 5 49 1 77 -13 28 -14 50 -18 83 -14 35 3 50
0 65 -13 19 -17 21 -16 71 26 l53 44 -35 6 c-19 3 -46 13 -60 22 -18 12 -44
17 -82 16 -43 -2 -61 3 -83 20 -26 20 -36 22 -99 16 -57 -6 -75 -4 -87 8 -8 9
-33 24 -54 34 -34 16 -39 22 -36 48 2 17 11 38 19 48 15 16 7 17 -160 17
l-177 0 0 -25z"/>
<path d="M4575 4505 c17 -13 34 -24 38 -25 14 0 37 -68 37 -108 0 -23 8 -49
19 -63 10 -14 21 -40 23 -59 3 -34 2 -35 -34 -38 -22 -2 -38 1 -38 7 0 15 -20
14 -54 -4 -15 -8 -33 -12 -40 -8 -6 4 -6 1 2 -9 10 -13 10 -17 -4 -22 -8 -3
-27 -3 -40 0 -16 4 -31 1 -44 -11 -12 -11 -31 -16 -54 -14 -19 2 -38 1 -41 -3
-4 -3 0 -29 9 -57 8 -29 13 -58 10 -65 -4 -10 2 -12 20 -9 21 4 26 1 26 -16 0
-30 18 -26 22 6 2 20 9 27 28 28 14 1 33 5 42 9 14 6 20 2 28 -19 19 -50 14
-65 -25 -65 -43 0 -44 -8 -6 -44 16 -16 40 -51 52 -80 19 -43 22 -67 20 -158
l-2 -108 61 0 c66 0 114 -18 142 -53 11 -15 13 -25 7 -33 -7 -8 -6 -14 0 -19
7 -4 5 -14 -5 -30 -14 -21 -14 -32 -3 -80 14 -64 20 -70 57 -60 27 7 27 7 5
17 -23 11 -39 38 -23 38 6 0 10 13 10 29 0 16 9 49 19 74 21 48 58 71 107 65
23 -2 29 -8 29 -28 0 -14 6 -39 13 -57 11 -24 11 -36 2 -52 -13 -24 -5 -61 13
-61 16 0 64 -78 71 -112 2 -15 9 -33 15 -40 25 -29 61 -90 61 -101 0 -7 5 -18
12 -25 7 -7 11 -28 10 -48 -3 -40 28 -84 58 -84 23 0 55 -38 69 -80 8 -24 22
-42 47 -55 42 -22 57 -49 74 -128 13 -67 5 -86 -38 -85 -20 1 -35 12 -56 42
-26 36 -30 39 -36 21 -10 -28 4 -51 40 -63 17 -7 35 -23 42 -39 7 -15 27 -46
45 -67 32 -38 41 -74 27 -110 -3 -9 -13 -16 -20 -16 -11 0 -12 -4 -4 -19 15
-29 12 -86 -7 -126 -15 -32 -42 -44 -35 -16 1 6 -3 11 -8 11 -25 0 -99 44
-143 85 -38 35 -56 45 -83 45 -32 0 -36 -4 -68 -68 l-34 -68 28 -16 c16 -9 31
-28 34 -45 5 -23 21 -38 74 -68 69 -39 172 -134 172 -157 0 -25 38 -88 65
-109 14 -12 47 -28 73 -35 52 -16 85 -43 102 -85 16 -38 31 -37 24 1 -6 27 -4
30 17 30 13 0 31 -5 39 -10 12 -8 11 -10 -6 -10 -12 0 -24 -7 -28 -15 -4 -12
4 -15 44 -15 28 0 50 -4 50 -10 0 -5 5 -10 11 -10 8 0 8 5 -1 15 -7 8 -19 15
-26 15 -9 0 -14 12 -14 35 0 19 -4 35 -10 35 -5 0 -10 8 -10 18 0 12 -13 23
-37 32 -37 13 -37 14 -13 21 14 4 37 7 52 8 21 1 25 -3 21 -19 -6 -21 11 -25
54 -14 26 7 21 24 -6 24 -10 0 -24 7 -31 15 -25 30 35 16 65 -15 16 -16 34
-30 40 -30 9 0 65 -56 65 -66 0 -2 11 -20 25 -40 33 -48 34 -87 3 -82 -15 2
-23 10 -23 22 0 11 -6 21 -13 24 -6 2 -12 -4 -12 -12 0 -10 -12 -19 -30 -22
-16 -4 -28 -9 -25 -13 2 -4 -5 -12 -15 -19 -14 -9 -21 -8 -30 3 -7 8 -16 12
-21 9 -5 -2 -22 2 -38 11 -34 17 -45 19 -36 6 13 -22 -19 -22 -36 0 -22 30
-27 24 -22 -27 l5 -40 115 -12 c75 -8 128 -19 154 -32 21 -11 39 -16 39 -10 0
5 5 10 10 10 6 0 10 -6 10 -14 0 -8 16 -23 35 -35 l35 -20 4 22 c2 12 11 87
20 167 9 80 23 181 30 225 8 44 26 157 40 250 49 323 111 605 158 728 16 43
28 81 25 83 -3 3 -21 -24 -41 -60 -35 -62 -117 -156 -137 -156 -5 0 -9 9 -9
20 0 19 -7 20 -95 20 -52 0 -95 -2 -95 -5 0 -3 10 -15 21 -26 18 -18 21 -29
16 -73 -6 -51 -70 -275 -102 -354 -16 -38 -95 -122 -116 -122 -5 0 -23 -12
-39 -26 -22 -20 -28 -33 -24 -49 3 -13 1 -39 -5 -59 -9 -34 -8 -38 14 -46 51
-19 41 -48 -25 -70 -22 -7 -45 -19 -51 -27 -6 -7 -18 -13 -26 -13 -12 0 -14 9
-9 45 4 26 3 45 -2 45 -5 0 -17 15 -25 33 -12 25 -15 72 -16 205 0 94 3 172 8
172 4 0 16 16 26 34 19 34 19 36 0 56 -10 11 -26 18 -34 15 -23 -7 -51 133
-51 251 0 49 -5 107 -10 129 -5 22 -14 79 -20 127 -10 85 -42 167 -68 176 -6
2 -28 -12 -49 -31 -34 -32 -36 -37 -25 -61 22 -50 10 -102 -21 -90 -9 3 -19
14 -22 25 -4 10 -12 19 -18 19 -7 1 -21 9 -33 18 -29 24 -24 63 15 141 30 59
32 68 22 101 -6 21 -11 62 -11 93 0 53 -1 56 -37 78 -51 32 -72 41 -113 48
-31 6 -37 11 -52 56 -9 28 -17 63 -17 79 -1 16 -5 43 -10 60 -38 125 -53 279
-52 529 0 63 20 147 41 172 5 6 5 17 0 25 -18 29 -10 66 19 94 40 39 31 56
-30 56 l-49 0 0 -35 c0 -19 -3 -35 -8 -35 -17 0 -34 -67 -36 -143 -3 -92 -5
-94 -70 -49 -63 44 -81 102 -51 174 5 12 1 17 -17 20 -12 2 -32 17 -43 35 -20
32 -22 32 -95 33 l-75 0 30 -25z"/>
<path d="M3703 4128 c2 -18 14 -71 26 -117 17 -65 21 -98 16 -146 -6 -53 -4
-68 15 -106 25 -49 32 -141 12 -161 -18 -18 -15 -39 12 -67 16 -17 31 -53 43
-100 25 -102 45 -107 41 -10 l-3 74 47 -2 c37 -1 48 3 53 16 8 25 75 45 120
37 27 -5 39 -14 46 -34 13 -34 2 -118 -20 -157 -10 -17 -21 -54 -25 -83 -6
-44 -4 -51 9 -46 8 3 15 9 15 13 0 4 16 34 36 67 21 34 38 76 41 99 3 31 12
48 43 75 27 25 42 48 48 77 11 50 4 212 -11 231 -5 6 -22 12 -37 12 -15 0 -38
8 -50 18 -29 23 -20 59 18 69 33 10 179 9 188 0 4 -4 7 -19 6 -34 -6 -273 1
-304 49 -212 19 39 20 43 5 116 -9 41 -24 91 -33 110 -16 34 -16 36 2 49 17
13 17 14 -6 33 -13 11 -36 21 -51 22 -16 1 -34 2 -40 3 -7 1 -12 -7 -12 -16 1
-13 -10 -18 -52 -24 -30 -3 -61 -4 -70 0 -21 8 -14 48 11 61 43 22 46 25 35
46 -19 35 -58 53 -85 41 -14 -7 -25 -18 -25 -27 0 -12 -12 -15 -52 -14 -80 1
-163 21 -163 39 -1 19 -26 15 -71 -11 -42 -23 -49 -20 -65 29 -15 48 -27 62
-51 62 -17 0 -19 -5 -15 -32z"/>
<path d="M4817 3138 c42 -45 61 -85 68 -149 10 -83 14 -99 29 -99 8 0 24 -12
36 -27 18 -23 21 -37 17 -75 -3 -26 -13 -58 -21 -70 -16 -25 -79 -53 -95 -44
-5 4 -11 0 -14 -6 -5 -17 22 -37 52 -38 14 0 35 -10 47 -21 22 -20 25 -21 61
-6 42 16 57 53 47 117 -3 23 0 42 10 55 20 25 20 53 1 98 -16 38 -23 139 -12
172 6 17 1 23 -25 30 -21 7 -42 25 -61 53 l-28 42 -72 0 -71 0 31 -32z"/>
<path d="M4943 2383 c-7 -2 -13 -11 -13 -18 0 -7 -13 -41 -30 -76 -16 -34 -27
-66 -25 -70 3 -4 18 -11 33 -17 27 -9 29 -8 72 73 38 71 42 85 31 99 -13 16
-43 20 -68 9z"/>
<path d="M4823 2030 c-23 -28 -75 -44 -92 -27 -5 5 -12 -3 -16 -23 -5 -21 -11
-30 -21 -26 -10 4 -11 0 -4 -20 5 -13 7 -63 4 -111 -5 -93 -13 -110 -67 -143
-23 -14 -25 -19 -13 -29 12 -10 12 -16 0 -39 -16 -30 -19 -56 -5 -48 4 3 14
25 21 50 7 26 26 58 46 77 32 31 35 32 52 16 16 -17 15 -20 -13 -72 -16 -30
-27 -57 -24 -60 3 -3 12 6 19 20 7 14 19 25 27 25 7 0 13 7 13 15 0 10 10 15
30 15 23 0 35 -7 50 -32 22 -36 19 -68 -11 -110 -16 -23 -16 -27 -3 -32 35
-13 42 -6 46 51 4 48 10 61 37 85 17 15 42 28 56 28 18 0 25 5 25 20 0 11 5
20 10 20 6 0 10 11 10 24 0 34 25 50 76 47 25 -1 44 2 44 9 0 5 -13 10 -28 10
-16 0 -37 8 -48 19 -19 18 -20 18 -69 -7 -27 -14 -78 -35 -113 -48 -63 -22
-63 -22 -102 -3 -85 41 -80 124 12 208 35 31 85 108 76 116 -2 1 -13 -10 -25
-25z"/>
<path d="M6596 593 c-4 -21 -11 -63 -16 -94 -6 -30 -10 -70 -10 -88 0 -31 33
-104 56 -126 7 -5 15 -23 19 -40 3 -16 16 -45 27 -64 36 -58 118 -92 132 -55
3 9 6 111 6 228 0 155 -3 216 -12 228 -7 8 -42 21 -78 27 -36 7 -77 14 -92 17
-25 5 -27 2 -32 -33z"/>
</g>
</svg>
